<svg width="36" height="36" viewBox="0 0 36 36" fill="none" xmlns="http://www.w3.org/2000/svg">
<g clip-path="url(#clip0_709_29)">
<path d="M35.28 18.41C35.28 17.132 35.166 15.906 34.952 14.728H18V21.69H27.688C27.4875 22.7912 27.0658 23.8404 26.4485 24.774C25.8311 25.7076 25.0308 26.5064 24.096 27.122V31.64H29.912C33.316 28.506 35.28 23.89 35.28 18.41Z" fill="#4285F4"/>
<path d="M18 35.9999C22.86 35.9999 26.934 34.3879 29.912 31.6399L24.096 27.1219C22.484 28.2019 20.422 28.8419 18 28.8419C13.312 28.8419 9.344 25.6739 7.928 21.4199H1.914V26.0839C3.4121 29.0658 5.70988 31.5724 8.55057 33.3235C11.3913 35.0746 14.663 36.0012 18 35.9999Z" fill="#34A853"/>
<path d="M7.928 21.42C7.55744 20.3177 7.36699 19.1629 7.364 18C7.364 16.814 7.568 15.66 7.928 14.58V9.91602H1.914C0.654112 12.4245 -0.00135932 15.1929 2.11647e-06 18C2.11647e-06 20.904 0.696002 23.654 1.914 26.084L7.928 21.42Z" fill="#FBBC05"/>
<path d="M18 7.16C20.642 7.16 23.016 8.068 24.88 9.85L30.044 4.69C26.926 1.782 22.852 1.41417e-06 18 1.41417e-06C14.663 -0.00132136 11.3913 0.92535 8.55057 2.67646C5.70988 4.42757 3.4121 6.93412 1.914 9.916L7.928 14.58C9.344 10.326 13.312 7.16 18 7.16Z" fill="#EA4335"/>
</g>
<defs>
<clipPath id="clip0_709_29">
<rect width="36" height="36" fill="white"/>
</clipPath>
</defs>
</svg>
