<svg width="74" height="67" viewBox="0 0 74 67" fill="none" xmlns="http://www.w3.org/2000/svg">
<path fill-rule="evenodd" clip-rule="evenodd" d="M37.1522 0.873535C38.0312 0.873535 38.8742 1.21893 39.4957 1.83374C40.1172 2.44854 40.4664 3.2824 40.4664 4.15186V7.43019C40.4664 8.29966 40.1172 9.13352 39.4957 9.74832C38.8742 10.3631 38.0312 10.7085 37.1522 10.7085C36.2732 10.7085 35.4302 10.3631 34.8087 9.74832C34.1871 9.13352 33.838 8.29966 33.838 7.43019V4.15186C33.838 3.2824 34.1871 2.44854 34.8087 1.83374C35.4302 1.21893 36.2732 0.873535 37.1522 0.873535ZM8.2952 8.39075C8.91671 7.77615 9.75955 7.43089 10.6384 7.43089C11.5172 7.43089 12.36 7.77615 12.9815 8.39075L17.9529 13.3082C18.5566 13.9265 18.8906 14.7547 18.8831 15.6142C18.8755 16.4738 18.527 17.296 17.9125 17.9039C17.298 18.5117 16.4668 18.8565 15.5978 18.8639C14.7288 18.8714 13.8916 18.541 13.2665 17.9438L8.2952 13.0263C7.67388 12.4115 7.32484 11.5778 7.32484 10.7085C7.32484 9.83923 7.67388 9.00552 8.2952 8.39075ZM66.0092 8.39075C66.6305 9.00552 66.9795 9.83923 66.9795 10.7085C66.9795 11.5778 66.6305 12.4115 66.0092 13.0263L61.0378 17.9438C60.7321 18.2569 60.3664 18.5067 59.962 18.6785C59.5577 18.8503 59.1228 18.9407 58.6827 18.9445C58.2427 18.9483 57.8063 18.8653 57.399 18.7005C56.9917 18.5357 56.6216 18.2922 56.3104 17.9844C55.9992 17.6766 55.7532 17.3106 55.5865 16.9077C55.4199 16.5048 55.336 16.0731 55.3398 15.6378C55.3437 15.2025 55.4351 14.7723 55.6088 14.3724C55.7825 13.9724 56.035 13.6107 56.3515 13.3082L61.3228 8.39075C61.9444 7.77615 62.7872 7.43089 63.666 7.43089C64.5448 7.43089 65.3877 7.77615 66.0092 8.39075ZM0.695679 36.9352C0.695679 36.0657 1.04486 35.2318 1.66639 34.617C2.28793 34.0022 3.13092 33.6568 4.00991 33.6568H7.32413C8.20312 33.6568 9.04611 34.0022 9.66765 34.617C10.2892 35.2318 10.6384 36.0657 10.6384 36.9352C10.6384 37.8046 10.2892 38.6385 9.66765 39.2533C9.04611 39.8681 8.20312 40.2135 7.32413 40.2135H4.00991C3.13092 40.2135 2.28793 39.8681 1.66639 39.2533C1.04486 38.6385 0.695679 37.8046 0.695679 36.9352ZM63.666 36.9352C63.666 36.0657 64.0152 35.2318 64.6367 34.617C65.2583 34.0022 66.1013 33.6568 66.9802 33.6568H70.2945C71.1735 33.6568 72.0165 34.0022 72.638 34.617C73.2595 35.2318 73.6087 36.0657 73.6087 36.9352C73.6087 37.8046 73.2595 38.6385 72.638 39.2533C72.0165 39.8681 71.1735 40.2135 70.2945 40.2135H66.9802C66.1013 40.2135 65.2583 39.8681 64.6367 39.2533C64.0152 38.6385 63.666 37.8046 63.666 36.9352ZM17.9529 55.9265C18.5742 56.5413 18.9232 57.375 18.9232 58.2443C18.9232 59.1136 18.5742 59.9473 17.9529 60.5621L12.9815 65.4796C12.3564 66.0768 11.5193 66.4072 10.6503 66.3997C9.78131 66.3923 8.95006 66.0475 8.33558 65.4396C7.72109 64.8318 7.37254 64.0096 7.36499 63.15C7.35743 62.2904 7.69149 61.4623 8.2952 60.844L13.2665 55.9265C13.8881 55.3119 14.7309 54.9667 15.6097 54.9667C16.4885 54.9667 17.3314 55.3119 17.9529 55.9265ZM56.3515 55.9265C56.973 55.3119 57.8159 54.9667 58.6947 54.9667C59.5735 54.9667 60.4163 55.3119 61.0378 55.9265L66.0092 60.844C66.6129 61.4623 66.9469 62.2904 66.9394 63.15C66.9318 64.0096 66.5833 64.8318 65.9688 65.4396C65.3543 66.0475 64.5231 66.3923 63.6541 66.3997C62.7851 66.4072 61.9479 66.0768 61.3228 65.4796L56.3515 60.5621C55.7302 59.9473 55.3811 59.1136 55.3811 58.2443C55.3811 57.375 55.7302 56.5413 56.3515 55.9265Z" fill="white"/>
</svg>
