<svg width="61" height="52" viewBox="0 0 61 52" fill="none" xmlns="http://www.w3.org/2000/svg">
<path d="M26.7731 11.3123C26.8519 11.612 26.8204 11.6719 26.6154 11.597C26.2844 11.4771 26.2844 11.9567 26.6154 12.4062C27.0883 13.0506 27.9395 12.616 27.9395 11.7469C27.9395 11.1774 27.6873 10.9377 27.1198 10.9377C26.7258 10.9377 26.6785 10.9826 26.7731 11.3123Z" fill="white"/>
<path d="M29.8727 11.1187C29.589 11.5533 29.3526 12.0328 29.3526 12.1976C29.3526 12.3775 30.2195 12.4074 30.4086 12.2426C30.5663 12.0778 31.0864 12.1227 31.0864 12.2875C31.0864 12.3625 30.9919 12.4374 30.8815 12.4374C30.5978 12.4374 29.9831 13.0818 29.9831 13.3815C29.9831 13.5164 30.0619 13.6662 30.1407 13.7112C30.3456 13.8311 30.1722 14.1308 29.4314 14.91C29.1319 15.2397 28.8797 15.5844 28.8797 15.6893C28.8797 15.7942 28.8167 15.8841 28.7536 15.8841C28.6748 15.8841 28.596 16.2138 28.5802 16.6034C28.5645 17.2478 28.6275 17.3976 29.1161 17.8772C29.5732 18.3267 29.7939 18.4316 30.2668 18.4316C31.5278 18.4316 32.0322 17.8922 32.0322 16.5584C32.0322 15.7642 31.7484 15.0149 31.3229 14.6852C31.1968 14.5803 31.0864 14.3406 31.0864 14.1458C31.0864 13.9659 31.0234 13.7561 30.9288 13.7112C30.4559 13.4265 31.2598 12.3625 32.0164 12.2576C32.2371 12.2426 32.4262 12.1377 32.4577 12.0478C32.5366 11.823 31.9691 11.2386 31.6539 11.2386C31.512 11.2386 31.4017 11.1636 31.4017 11.0887C31.4017 10.8639 30.0304 10.9089 29.8727 11.1187Z" fill="#FF0000"/>
<path d="M21.3786 12.3617C20.5275 13.3358 20.2595 13.7104 19.3926 15.134C18.4153 16.7675 18.0055 17.5767 17.044 19.7046C16.8076 20.2441 16.3978 21.4879 16.2401 22.1023C16.1613 22.432 16.0195 23.0015 15.9249 23.3761C15.4993 25.0695 15.6097 28.4412 16.1456 30.2695C16.5396 31.6332 16.6657 31.9179 17.2332 32.9819C18.6045 35.5894 20.4014 37.5225 23.0495 39.2459C23.6957 39.6655 25.4138 40.4597 25.666 40.4597C25.9339 40.4597 26.0443 40.8193 25.9339 41.4038C25.8078 42.1381 26.7063 44.3709 27.4471 45.1502C27.6836 45.4049 27.6678 45.4499 27.3841 45.6447C27.2265 45.7646 26.8482 45.8545 26.5644 45.8545C25.9339 45.8545 24.8779 46.3041 24.137 46.8885C23.5066 47.398 23.6169 47.6378 24.342 47.3081C25.4926 46.8136 26.0285 46.6787 26.2334 46.8735C26.3753 47.0084 26.3438 47.1283 26.0758 47.398C25.5399 47.9375 25.666 47.9974 26.4699 47.5778C27.8254 46.8885 28.251 47.1582 27.3053 48.0874C26.9585 48.432 26.6748 48.7467 26.6748 48.7917C26.6748 48.9265 27.2107 48.7917 28.4874 48.3571C30.2528 47.7577 30.3316 47.7577 31.829 48.2672C34.1776 49.0464 34.288 49.0464 33.3422 48.0574C32.7905 47.4729 32.7748 47.443 33.1058 47.3081C33.3422 47.2032 33.5629 47.2482 33.9727 47.4879C34.7293 47.9225 34.9815 47.9075 34.6505 47.428C34.1461 46.7087 34.6505 46.6338 36.0691 47.2332C36.4316 47.383 36.8099 47.6078 36.9203 47.7277C37.1409 47.9675 37.3931 48.0274 37.3931 47.8326C37.3931 47.5928 36.1479 46.4989 35.5805 46.2441L35.013 45.9894L35.7696 45.4349C37.8345 43.9064 40.0412 41.2539 40.5298 39.7104C40.6401 39.3358 40.7978 38.8862 40.8766 38.6914C41.0657 38.2418 41.05 37.6574 40.8608 37.3277C40.7505 37.1179 40.7978 36.968 41.113 36.6983C41.3179 36.5185 41.6016 36.1888 41.712 35.979C41.8223 35.7542 42.2794 35.0349 42.705 34.3606C43.1463 33.7012 43.6823 32.6822 43.9345 32.1127C44.1709 31.5583 44.4231 30.9588 44.4861 30.794C45.0851 29.3853 45.5265 23.1064 45.0851 22.1773C44.9748 21.9225 44.8329 21.7277 44.7699 21.7277C44.6122 21.7277 44.1709 22.1773 44.1709 22.3421C44.1709 22.417 44.0606 22.477 43.9345 22.477C43.7296 22.477 43.698 22.1473 43.698 20.379C43.698 18.1911 43.4458 17.0822 42.9572 17.0822C42.6735 17.0822 42.1533 18.1761 42.043 19.0303C41.9957 19.39 41.9327 19.7046 41.9011 19.7346C41.8696 19.7646 41.7435 19.5698 41.6016 19.3C41.2076 18.4908 41.0815 15.209 41.3967 13.5156C41.5386 12.7363 41.6174 12.047 41.5701 11.9721C41.381 11.7023 40.8135 11.8372 40.4352 12.2418C39.6944 13.051 39.1427 14.2649 39.127 15.134C39.127 15.4188 39.0166 15.7934 38.8905 15.9433C38.6856 16.198 38.6541 16.198 38.5595 15.9732C38.5122 15.8384 38.5122 15.4787 38.5595 15.164C38.8433 13.5006 38.859 13.1859 38.6226 13.1859C38.1182 13.1859 37.4246 14.1899 37.1094 15.3588C36.6996 16.9323 36.605 17.4568 36.605 18.4159C36.605 19.2251 36.542 19.5248 36.274 19.8395C35.943 20.2441 35.9115 20.8436 36.2425 20.9335C36.337 20.9634 36.4631 20.8585 36.5262 20.6937C36.6838 20.2142 37.1094 20.1692 37.4719 20.5888C37.8818 21.0683 38.2443 21.1133 38.1024 20.6637C37.9133 20.1093 38.1812 18.1611 38.4965 17.8015C38.7329 17.5168 38.8275 17.4868 39.19 17.6516C39.6629 17.8464 39.9466 18.4459 40.2146 19.7796C40.3091 20.3191 40.4352 20.9335 40.4825 21.1583C40.5929 21.6678 41.0184 21.7127 41.0184 21.2332C41.0184 21.0384 41.1603 20.7536 41.3179 20.6038C41.6174 20.349 41.6489 20.364 41.9484 20.8436C42.2479 21.3081 42.3425 21.6228 42.2952 21.9225C42.2794 21.9825 42.3582 22.1923 42.4528 22.3721C42.6262 22.6718 42.6735 22.9715 42.7365 24.2453C42.7523 24.6799 42.7838 24.7248 43.1306 24.6349C43.4458 24.56 43.5562 24.6349 43.7768 25.0245C43.9818 25.3992 44.0133 25.8038 43.966 27.0176C43.8557 29.2505 43.635 30.1946 42.8784 31.6032C42.1849 32.907 41.1761 34.1508 41.1761 33.7012C41.1761 33.5663 41.3494 32.9219 41.5701 32.2776C41.9957 31.0188 42.0588 30.3444 41.8066 30.1946C41.712 30.1346 41.5386 30.1796 41.4125 30.2695C41.0815 30.5242 40.9239 30.0747 41.1603 29.5802C41.2549 29.3704 41.3337 28.741 41.3337 28.1565V27.1225L40.7978 27.3323C40.4983 27.4522 40.2146 27.5121 40.1673 27.4522C40.12 27.4072 40.0727 26.9727 40.0727 26.4931C40.0727 25.8487 40.0097 25.624 39.852 25.624C39.6156 25.624 38.8117 26.5531 38.8117 26.8078C38.8117 27.0326 38.5753 27.0176 38.3704 26.7778C38.2916 26.6879 38.0551 26.1185 37.8502 25.549C37.3774 24.2303 36.4316 22.8366 35.0603 21.5329C33.8939 20.394 33.421 20.1093 32.6487 20.0493C32.2704 20.0193 32.1128 20.0643 32.0655 20.2591C32.0339 20.4389 32.3334 20.6637 33.1373 21.0534C34.5717 21.7727 35.6908 22.9415 36.5735 24.575C36.936 25.2793 37.2355 25.9237 37.2355 26.0286C37.2355 26.1185 37.2985 26.2234 37.3616 26.2534C37.5035 26.3133 38.3231 28.5911 38.5122 29.4453C38.5753 29.775 38.7171 30.3444 38.8117 30.7191C39.2531 32.4424 39.3161 32.8021 39.3476 33.7162C39.3634 34.6303 39.3476 34.6902 38.9851 34.7352C38.7802 34.7652 38.5438 34.7202 38.4492 34.6303C38.3546 34.5404 38.0867 34.4655 37.8502 34.4655C37.6138 34.4655 37.3616 34.3905 37.3143 34.3156C37.267 34.2257 37.0779 34.1657 36.9203 34.1657C36.542 34.1657 35.5016 33.6412 35.1864 33.2966C34.7608 32.832 33.2476 32.0378 32.3807 31.828C31.9236 31.7081 31.2301 31.4534 30.8833 31.2585C30.5208 31.0487 29.8272 30.749 29.3544 30.5692C28.2195 30.1496 26.9427 28.9657 26.3438 27.7969C25.9497 27.0176 25.8867 26.7179 25.8867 25.579C25.8867 24.4851 25.9497 24.1254 26.2807 23.481C26.7063 22.6268 27.5259 21.7427 28.1564 21.458C28.3771 21.368 28.7239 21.2032 28.9288 21.1283C29.1179 21.0384 29.6223 20.7237 30.0321 20.4389C30.6626 20.0044 30.7572 19.8695 30.5996 19.6897C30.505 19.5698 30.2213 19.4799 30.0006 19.4799C29.5277 19.4799 28.251 18.6706 28.251 18.3709C28.251 18.266 28.1249 18.0712 27.9673 17.9363C27.6993 17.6966 27.6678 17.7415 27.3368 18.7306C26.9585 19.8845 26.3122 20.9784 25.997 20.9784C25.9024 20.9784 25.6502 21.0234 25.4611 21.0683C25.0355 21.1732 24.6257 20.5139 24.6257 19.6747V19.1052L24.3104 19.4799C24.137 19.6897 23.9952 19.9294 23.9952 20.0343C23.9952 20.5139 22.6554 22.3271 22.2929 22.3271C22.2298 22.3271 22.0722 22.2522 21.9461 22.1773C21.7569 22.0724 21.7097 21.6977 21.7254 20.349C21.7254 19.33 21.8042 18.5208 21.9303 18.311C22.2771 17.7116 21.7254 17.7415 21.1107 18.3709C20.496 19.0153 20.1492 18.9853 20.0073 18.296C19.8812 17.7415 19.9758 17.1871 20.4172 15.8833C20.6063 15.3438 20.7639 14.8793 20.7797 14.8343C20.8427 14.5646 21.3944 13.5006 21.7254 13.0211C22.3874 12.017 22.1195 11.4925 21.3786 12.3617ZM23.3332 34.4055C23.3647 34.8101 23.4435 35.1997 23.5381 35.2747C23.6169 35.3646 23.6799 35.5444 23.6799 35.6793C23.6799 36.1738 24.6572 37.6874 25.5241 38.5266C26.2177 39.2009 26.3753 39.4407 26.2807 39.6954C26.1231 40.1899 25.8078 40.0701 24.9094 39.126C24.0109 38.1819 23.0495 36.5185 23.0495 35.9191C23.0495 35.7242 22.9706 35.3496 22.8761 35.0799C22.6712 34.5254 22.8288 33.5214 23.0967 33.6113C23.2071 33.6412 23.3016 34.0009 23.3332 34.4055ZM31.2931 35.6493C31.2143 35.7842 30.9779 35.9041 30.7887 35.934C30.4892 35.979 30.4577 35.9191 30.4577 35.1398C30.4577 34.6003 30.5523 34.1657 30.7257 33.911L30.9936 33.5214L31.2301 34.4655C31.3877 35.1248 31.4192 35.4695 31.2931 35.6493ZM32.9797 35.2147C32.9797 35.2897 32.8693 35.3646 32.7432 35.3646C32.6172 35.3646 32.5068 35.2897 32.5068 35.2147C32.5068 35.1248 32.6172 35.0649 32.7432 35.0649C32.8693 35.0649 32.9797 35.1248 32.9797 35.2147ZM27.652 39.2159C27.1161 40.145 26.9743 42.0781 27.3841 42.9023C27.5259 43.2021 27.6047 43.5168 27.5417 43.6217C27.2895 44.0113 26.9427 42.7825 26.927 41.4338C26.927 40.2948 26.9743 39.9652 27.3053 39.3058C27.5259 38.8712 27.7781 38.5116 27.8885 38.5116C27.9988 38.5116 27.9042 38.7963 27.652 39.2159Z" fill="white"/>
<path d="M29.9836 7.79664L29.8866 7.09946C29.5537 5.66346 31.8304 4.78614 31.4634 4.06378C30.9332 3.1255 27.9442 4.15146 26.7369 6.49043C26.5728 6.74752 26.4822 7.05448 26.4652 7.4113C26.3674 7.18714 26.2696 6.96297 26.1063 6.74704C25.2001 5.50132 27.1915 4.00961 26.4478 3.45284C25.4752 2.68837 23.1313 4.51996 22.8894 7.09228C22.8311 7.63163 22.9038 8.15452 23.173 8.65272C23.0994 8.60285 23.0259 8.55298 22.9604 8.56121C21.7421 7.94586 22.6372 6.23727 21.8029 5.98745C20.5595 5.67083 19.8026 7.89408 20.6747 9.85345C21.2292 10.966 22.8396 12.005 23.881 10.8692C24.2335 10.5293 25.0857 9.94926 25.5854 9.70911C25.9621 9.54353 27.018 9.46992 27.7294 9.7943C28.3673 10.0688 28.9226 10.7084 29.774 10.6014C33.5229 10.2484 35.1086 6.79777 33.6364 6.27344C32.8514 5.8992 31.8997 7.20111 29.9836 7.79664Z" fill="#E2D600"/>
</svg>
