<svg width="128" height="128" viewBox="0 0 128 128" fill="none" xmlns="http://www.w3.org/2000/svg">
<path d="M111.549 51.0084C111.831 50.368 111.984 49.6783 111.999 48.9788C112.014 48.2793 111.891 47.5837 111.637 46.9318C111.382 46.28 111.002 45.6846 110.518 45.1797C110.033 44.6749 109.454 44.2705 108.813 43.9898L39.0801 13.2911C33.7734 10.9551 27.2401 13.5631 24.9734 18.8484L13.1867 46.3364C12.0779 48.9366 12.0459 51.8704 13.0977 54.4941C14.1496 57.1178 16.1995 59.217 18.7974 60.3311L51.0001 74.1337L44.3867 90.6671H21.3307V74.6671H10.6641V117.334H21.3307V101.334H44.3867C48.7761 101.334 52.6641 98.6991 54.2854 94.6244L60.8027 78.3364L88.5627 90.2297C89.8555 90.7845 91.3152 90.806 92.6238 90.2896C93.9324 89.7731 94.9839 88.7606 95.5494 87.4724L97.2134 83.6857L106.285 87.3124L116.952 60.6457L108.76 57.3764L111.549 51.0084ZM87.9014 78.3471L23.0001 50.5338L34.7761 23.0564L99.6401 51.6111L87.9014 78.3471Z" fill="#45546E"/>
</svg>
