<svg width="25" height="24" viewBox="0 0 25 24" fill="none" xmlns="http://www.w3.org/2000/svg">
<g clip-path="url(#clip0_4840_1448)">
<path d="M12.1328 2C14.8498 2 15.1888 2.01 16.2548 2.06C17.3198 2.11 18.0448 2.277 18.6828 2.525C19.3428 2.779 19.8988 3.123 20.4548 3.678C20.9633 4.1779 21.3568 4.78259 21.6078 5.45C21.8548 6.087 22.0228 6.813 22.0728 7.878C22.1198 8.944 22.1328 9.283 22.1328 12C22.1328 14.717 22.1228 15.056 22.0728 16.122C22.0228 17.187 21.8548 17.912 21.6078 18.55C21.3575 19.2178 20.9639 19.8226 20.4548 20.322C19.9548 20.8303 19.3501 21.2238 18.6828 21.475C18.0458 21.722 17.3198 21.89 16.2548 21.94C15.1888 21.987 14.8498 22 12.1328 22C9.41581 22 9.07681 21.99 8.01081 21.94C6.94581 21.89 6.22081 21.722 5.58281 21.475C4.91514 21.2245 4.31034 20.8309 3.81081 20.322C3.30222 19.8222 2.90874 19.2175 2.65781 18.55C2.40981 17.913 2.24281 17.187 2.19281 16.122C2.14581 15.056 2.13281 14.717 2.13281 12C2.13281 9.283 2.14281 8.944 2.19281 7.878C2.24281 6.812 2.40981 6.088 2.65781 5.45C2.90805 4.78218 3.30162 4.17732 3.81081 3.678C4.31048 3.16923 4.91524 2.77573 5.58281 2.525C6.22081 2.277 6.94481 2.11 8.01081 2.06C9.07681 2.013 9.41581 2 12.1328 2ZM12.1328 7C10.8067 7 9.53496 7.52678 8.59728 8.46447C7.6596 9.40215 7.13281 10.6739 7.13281 12C7.13281 13.3261 7.6596 14.5979 8.59728 15.5355C9.53496 16.4732 10.8067 17 12.1328 17C13.4589 17 14.7307 16.4732 15.6683 15.5355C16.606 14.5979 17.1328 13.3261 17.1328 12C17.1328 10.6739 16.606 9.40215 15.6683 8.46447C14.7307 7.52678 13.4589 7 12.1328 7ZM18.6328 6.75C18.6328 6.41848 18.5011 6.10054 18.2667 5.86612C18.0323 5.6317 17.7143 5.5 17.3828 5.5C17.0513 5.5 16.7333 5.6317 16.4989 5.86612C16.2645 6.10054 16.1328 6.41848 16.1328 6.75C16.1328 7.08152 16.2645 7.39946 16.4989 7.63388C16.7333 7.8683 17.0513 8 17.3828 8C17.7143 8 18.0323 7.8683 18.2667 7.63388C18.5011 7.39946 18.6328 7.08152 18.6328 6.75ZM12.1328 9C12.9285 9 13.6915 9.31607 14.2541 9.87868C14.8167 10.4413 15.1328 11.2044 15.1328 12C15.1328 12.7956 14.8167 13.5587 14.2541 14.1213C13.6915 14.6839 12.9285 15 12.1328 15C11.3372 15 10.5741 14.6839 10.0115 14.1213C9.44888 13.5587 9.13281 12.7956 9.13281 12C9.13281 11.2044 9.44888 10.4413 10.0115 9.87868C10.5741 9.31607 11.3372 9 12.1328 9Z" fill="#D27541"/>
</g>
<defs>
<clipPath id="clip0_4840_1448">
<rect width="24" height="24" fill="white" transform="translate(0.132812)"/>
</clipPath>
</defs>
</svg>
