<svg width="25" height="24" viewBox="0 0 25 24" fill="none" xmlns="http://www.w3.org/2000/svg">
<g clip-path="url(#clip0_4840_1442)">
<path d="M12.0036 21.764C10.8136 21.764 10.0196 21.203 9.31057 20.708C8.80757 20.351 8.33457 20.012 7.77757 19.918C7.51237 19.8724 7.24366 19.8503 6.97457 19.852C6.50257 19.852 6.12757 19.923 5.86057 19.977C5.69057 20.007 5.54857 20.035 5.43657 20.035C5.32057 20.035 5.17357 20.003 5.11657 19.807C5.06657 19.647 5.03557 19.495 5.00457 19.348C4.92457 18.978 4.85757 18.751 4.71857 18.728C3.22957 18.501 2.33857 18.158 2.16457 17.752C2.15057 17.708 2.13357 17.662 2.13357 17.627C2.12357 17.502 2.21357 17.4 2.33857 17.377C3.51957 17.181 4.58057 16.553 5.47657 15.519C6.17257 14.716 6.51157 13.94 6.54257 13.856C6.54257 13.846 6.55157 13.846 6.55157 13.846C6.72157 13.495 6.75657 13.196 6.65357 12.951C6.46257 12.491 5.82857 12.295 5.39657 12.161C5.28557 12.131 5.19157 12.095 5.11157 12.068C4.74157 11.921 4.12557 11.608 4.20657 11.176C4.26457 10.864 4.67857 10.641 5.01757 10.641C5.11157 10.641 5.19157 10.655 5.25757 10.691C5.63757 10.864 5.98057 10.953 6.27457 10.953C6.64057 10.953 6.81457 10.815 6.85857 10.771C6.84926 10.5732 6.83759 10.3755 6.82357 10.178C6.73357 8.813 6.63157 7.119 7.06357 6.148C8.36157 3.241 11.1166 3.008 11.9326 3.008L12.2886 3H12.3386C13.1536 3 15.9086 3.227 17.2066 6.139C17.6436 7.11 17.5366 8.809 17.4466 10.169L17.4386 10.236C17.4286 10.418 17.4156 10.592 17.4066 10.771C17.4516 10.806 17.6116 10.94 17.9416 10.944C18.2276 10.936 18.5396 10.842 18.8956 10.681C18.9941 10.6384 19.1002 10.6159 19.2076 10.615C19.3326 10.615 19.4576 10.645 19.5646 10.681H19.5736C19.8726 10.793 20.0686 11.002 20.0686 11.221C20.0776 11.426 19.9166 11.738 19.1546 12.046C19.0746 12.076 18.9806 12.113 18.8696 12.139C18.4456 12.269 17.8126 12.474 17.6116 12.929C17.5006 13.169 17.5456 13.477 17.7146 13.824C17.7146 13.834 17.7236 13.834 17.7236 13.834C17.7726 13.958 19.0606 16.883 21.9276 17.36C21.9862 17.3699 22.0392 17.4006 22.0769 17.4466C22.1146 17.4926 22.1344 17.5506 22.1326 17.61C22.1326 17.654 22.1236 17.699 22.1016 17.739C21.9276 18.149 21.0446 18.483 19.5466 18.715C19.4086 18.737 19.3416 18.965 19.2616 19.335C19.2295 19.4892 19.1922 19.6423 19.1496 19.794C19.1056 19.941 19.0116 20.021 18.8516 20.021H18.8286C18.7266 20.021 18.5886 20.008 18.4056 19.972C18.0391 19.8939 17.6653 19.855 17.2906 19.856C17.0276 19.856 16.7556 19.879 16.4886 19.923C15.9356 20.013 15.4586 20.356 14.9546 20.713C14.2376 21.203 13.4396 21.764 12.2576 21.764H12.0036Z" fill="#FCC400"/>
</g>
<defs>
<clipPath id="clip0_4840_1442">
<rect width="24" height="24" fill="white" transform="translate(0.132812)"/>
</clipPath>
</defs>
</svg>
