<svg width="25" height="24" viewBox="0 0 25 24" fill="none" xmlns="http://www.w3.org/2000/svg">
<g clip-path="url(#clip0_4840_1445)">
<path d="M22.2971 5.6569C21.5336 5.9946 20.724 6.21638 19.8951 6.3149C20.7688 5.79234 21.4228 4.96992 21.7351 4.0009C20.9151 4.4889 20.0161 4.8309 19.0791 5.0159C18.4497 4.34248 17.6154 3.89587 16.706 3.74549C15.7966 3.59511 14.863 3.74939 14.0503 4.18436C13.2377 4.61932 12.5915 5.31059 12.2122 6.1507C11.8329 6.9908 11.7418 7.93268 11.9531 8.8299C10.2902 8.74656 8.66339 8.31443 7.17835 7.56157C5.6933 6.80871 4.38319 5.75195 3.33306 4.4599C2.96135 5.09835 2.76602 5.82413 2.76706 6.5629C2.76706 8.0129 3.50506 9.2939 4.62706 10.0439C3.96307 10.023 3.31369 9.84368 2.73306 9.5209V9.5729C2.73326 10.5386 3.06743 11.4745 3.67891 12.222C4.29039 12.9694 5.14154 13.4824 6.08806 13.6739C5.47168 13.8409 4.82537 13.8656 4.19806 13.7459C4.46493 14.5771 4.98507 15.3041 5.68565 15.825C6.38624 16.3459 7.23219 16.6347 8.10506 16.6509C7.23754 17.3322 6.24424 17.8359 5.18194 18.1331C4.11965 18.4303 3.00919 18.5152 1.91406 18.3829C3.82576 19.6123 6.05116 20.265 8.32406 20.2629C16.0171 20.2629 20.2241 13.8899 20.2241 8.3629C20.2241 8.1829 20.2191 8.0009 20.2111 7.8229C21.0299 7.23107 21.7367 6.49792 22.2981 5.6579L22.2971 5.6569Z" fill="#1DA1F2"/>
</g>
<defs>
<clipPath id="clip0_4840_1445">
<rect width="24" height="24" fill="white" transform="translate(0.132812)"/>
</clipPath>
</defs>
</svg>
