<svg width="25" height="24" viewBox="0 0 25 24" fill="none" xmlns="http://www.w3.org/2000/svg">
<g clip-path="url(#clip0_4840_1465)">
<path d="M0.643437 11.8563C0.642875 13.8728 1.17387 15.8417 2.18356 17.5771L0.546875 23.5066L6.66238 21.9156C8.35384 22.8292 10.249 23.308 12.1749 23.3081H12.1799C18.5376 23.3081 23.7129 18.1748 23.7156 11.8653C23.7168 8.80792 22.5179 5.93295 20.3398 3.76997C18.1619 1.60718 15.2655 0.415458 12.1795 0.414062C5.82106 0.414062 0.646156 5.54709 0.643531 11.8563" fill="url(#paint0_linear_4840_1465)"/>
<path d="M0.233125 11.8527C0.232469 13.9417 0.7825 15.981 1.82819 17.7786L0.132812 23.9207L6.46759 22.2726C8.21303 23.2168 10.1782 23.7147 12.1779 23.7154H12.1831C18.7688 23.7154 24.13 18.3975 24.1328 11.8621C24.1339 8.69488 22.8919 5.71656 20.6359 3.47609C18.3797 1.23591 15.3797 0.00130233 12.1831 0C5.59619 0 0.23575 5.31721 0.233125 11.8527ZM4.00563 17.469L3.76909 17.0965C2.77478 15.5277 2.24997 13.7149 2.25072 11.8534C2.25287 6.4213 6.70825 2.00186 12.1868 2.00186C14.8399 2.00298 17.3333 3.02921 19.2087 4.89116C21.084 6.7533 22.1159 9.22865 22.1152 11.8614C22.1128 17.2935 17.6573 21.7135 12.1831 21.7135H12.1791C10.3967 21.7126 8.6485 21.2376 7.12394 20.34L6.76113 20.1265L3.00194 21.1045L4.00563 17.4689V17.469Z" fill="url(#paint1_linear_4840_1465)"/>
<path d="M9.19469 6.89771C8.971 6.4044 8.73559 6.39445 8.52287 6.3858C8.34869 6.37836 8.14956 6.37892 7.95062 6.37892C7.7515 6.37892 7.42797 6.45324 7.1545 6.74952C6.88075 7.04608 6.10938 7.76273 6.10938 9.22031C6.10938 10.678 7.17934 12.0866 7.3285 12.2845C7.47784 12.482 9.39409 15.5689 12.429 16.7564C14.9512 17.7433 15.4645 17.547 16.0119 17.4975C16.5594 17.4482 17.7785 16.7811 18.0272 16.0892C18.2762 15.3975 18.2762 14.8046 18.2015 14.6807C18.1269 14.5572 17.9278 14.4831 17.6292 14.335C17.3305 14.1868 15.8626 13.4701 15.5889 13.3712C15.3152 13.2724 15.1161 13.2231 14.917 13.5198C14.7179 13.8159 14.1461 14.4831 13.9718 14.6807C13.7977 14.8787 13.6234 14.9034 13.3249 14.7552C13.0262 14.6065 12.0646 14.2941 10.9237 13.2849C10.0361 12.4996 9.43684 11.5298 9.26266 11.2331C9.08847 10.937 9.244 10.7764 9.39372 10.6288C9.52788 10.496 9.69241 10.2828 9.84184 10.1099C9.99072 9.93687 10.0404 9.81343 10.14 9.61585C10.2396 9.41808 10.1898 9.24506 10.1152 9.09687C10.0404 8.94868 9.46019 7.48347 9.19469 6.89771Z" fill="white"/>
</g>
<defs>
<linearGradient id="paint0_linear_4840_1465" x1="1158.98" y1="2309.67" x2="1158.98" y2="0.414062" gradientUnits="userSpaceOnUse">
<stop stop-color="#1FAF38"/>
<stop offset="1" stop-color="#60D669"/>
</linearGradient>
<linearGradient id="paint1_linear_4840_1465" x1="1200.13" y1="2392.07" x2="1200.13" y2="0" gradientUnits="userSpaceOnUse">
<stop stop-color="#F9F9F9"/>
<stop offset="1" stop-color="white"/>
</linearGradient>
<clipPath id="clip0_4840_1465">
<rect width="24" height="24" fill="white" transform="translate(0.132812)"/>
</clipPath>
</defs>
</svg>
