<svg width="146" height="30" viewBox="0 0 146 30" fill="none" xmlns="http://www.w3.org/2000/svg">
<path d="M14.0255 2.97393C14.3249 2.05262 15.6283 2.05261 15.9276 2.97393L18.0075 9.37514C18.1414 9.78717 18.5253 10.0661 18.9586 10.0661L25.6892 10.0661C26.6579 10.0661 27.0607 11.3057 26.277 11.8751L20.8318 15.8313C20.4813 16.086 20.3346 16.5373 20.4685 16.9494L22.5484 23.3506C22.8477 24.2719 21.7933 25.038 21.0096 24.4686L15.5643 20.5124C15.2139 20.2578 14.7393 20.2578 14.3888 20.5124L8.94357 24.4686C8.15986 25.038 7.10538 24.2719 7.40473 23.3506L9.48462 16.9494C9.61849 16.5373 9.47183 16.086 9.12134 15.8313L3.67614 11.8751C2.89242 11.3057 3.2952 10.0661 4.26393 10.0661L10.9946 10.0661C11.4278 10.0661 11.8117 9.78717 11.9456 9.37514L14.0255 2.97393Z" fill="#FBB57B"/>
<path d="M43.0255 2.97393C43.3249 2.05262 44.6283 2.05261 44.9276 2.97393L47.0075 9.37514C47.1414 9.78717 47.5253 10.0661 47.9586 10.0661L54.6892 10.0661C55.6579 10.0661 56.0607 11.3057 55.277 11.8751L49.8318 15.8313C49.4813 16.086 49.3346 16.5373 49.4685 16.9494L51.5484 23.3506C51.8477 24.2719 50.7933 25.038 50.0096 24.4686L44.5643 20.5124C44.2139 20.2578 43.7393 20.2578 43.3888 20.5124L37.9436 24.4686C37.1599 25.038 36.1054 24.2719 36.4047 23.3506L38.4846 16.9494C38.6185 16.5373 38.4718 16.086 38.1213 15.8313L32.6761 11.8751C31.8924 11.3057 32.2952 10.0661 33.2639 10.0661L39.9946 10.0661C40.4278 10.0661 40.8117 9.78717 40.9456 9.37514L43.0255 2.97393Z" fill="#FBB57B"/>
<path d="M72.0255 2.97393C72.3249 2.05262 73.6283 2.05261 73.9276 2.97393L76.0075 9.37514C76.1414 9.78717 76.5253 10.0661 76.9586 10.0661L83.6892 10.0661C84.6579 10.0661 85.0607 11.3057 84.277 11.8751L78.8318 15.8313C78.4813 16.086 78.3346 16.5373 78.4685 16.9494L80.5484 23.3506C80.8477 24.2719 79.7933 25.038 79.0096 24.4686L73.5643 20.5124C73.2139 20.2578 72.7393 20.2578 72.3888 20.5124L66.9436 24.4686C66.1599 25.038 65.1054 24.2719 65.4047 23.3506L67.4846 16.9494C67.6185 16.5373 67.4718 16.086 67.1213 15.8313L61.6761 11.8751C60.8924 11.3057 61.2952 10.0661 62.2639 10.0661L68.9946 10.0661C69.4278 10.0661 69.8117 9.78717 69.9456 9.37514L72.0255 2.97393Z" fill="#FBB57B"/>
<path d="M101.026 2.97393C101.325 2.05262 102.628 2.05261 102.928 2.97393L105.008 9.37514C105.141 9.78717 105.525 10.0661 105.959 10.0661L112.689 10.0661C113.658 10.0661 114.061 11.3057 113.277 11.8751L107.832 15.8313C107.481 16.086 107.335 16.5373 107.469 16.9494L109.548 23.3506C109.848 24.2719 108.793 25.038 108.01 24.4686L102.564 20.5124C102.214 20.2578 101.739 20.2578 101.389 20.5124L95.9436 24.4686C95.1599 25.038 94.1054 24.2719 94.4047 23.3506L96.4846 16.9494C96.6185 16.5373 96.4718 16.086 96.1213 15.8313L90.6761 11.8751C89.8924 11.3057 90.2952 10.0661 91.2639 10.0661L97.9946 10.0661C98.4278 10.0661 98.8117 9.78717 98.9456 9.37514L101.026 2.97393Z" fill="#FBB57B"/>
<path d="M130.026 2.97393C130.325 2.05262 131.628 2.05261 131.928 2.97393L134.008 9.37514C134.141 9.78717 134.525 10.0661 134.959 10.0661L141.689 10.0661C142.658 10.0661 143.061 11.3057 142.277 11.8751L136.832 15.8313C136.481 16.086 136.335 16.5373 136.469 16.9494L138.548 23.3506C138.848 24.2719 137.793 25.038 137.01 24.4686L131.564 20.5124C131.214 20.2578 130.739 20.2578 130.389 20.5124L124.944 24.4686C124.16 25.038 123.105 24.2719 123.405 23.3506L125.485 16.9494C125.618 16.5373 125.472 16.086 125.121 15.8313L119.676 11.8751C118.892 11.3057 119.295 10.0661 120.264 10.0661L126.995 10.0661C127.428 10.0661 127.812 9.78717 127.946 9.37514L130.026 2.97393Z" fill="#FBB57B"/>
</svg>
