<svg width="49" height="48" viewBox="0 0 49 48" fill="none" xmlns="http://www.w3.org/2000/svg">
<path d="M8.1611 8.58458C5.9211 13.0646 6.29443 18.5046 9.06776 21.8646L10.4011 23.4112L8.69443 25.8112C4.3211 31.9446 7.25443 39.1979 15.6811 43.1446C18.2411 44.3713 19.3078 44.5312 24.2144 44.5312C29.2278 44.5312 30.1344 44.3713 33.1744 42.9846C41.1211 39.3046 44.0011 31.8379 39.7344 25.8112L38.0278 23.4112L39.3611 21.8646C41.2811 19.5712 41.9744 16.8512 41.6011 13.4912C41.2278 10.2379 39.5211 6.39791 38.4544 6.39791C38.0278 6.39791 36.4278 7.35791 34.8811 8.53125C33.3344 9.70458 31.8411 10.6646 31.6278 10.6646C31.4144 10.6646 30.2944 10.1312 29.1744 9.49125C27.7344 8.63792 26.2944 8.26458 24.2144 8.26458C22.1344 8.26458 20.6944 8.63792 19.2544 9.49125C18.1344 10.1312 17.0144 10.6646 16.8011 10.6646C16.5878 10.6646 15.0944 9.70458 13.5478 8.53125C12.0011 7.35791 10.4011 6.39791 9.97443 6.39791C9.6011 6.39791 8.8011 7.41125 8.1611 8.58458ZM12.9078 12.1046C14.6144 13.5979 14.6144 13.5979 13.8144 15.7312C13.3878 16.9046 13.0678 18.5046 13.0144 19.3046C13.0144 20.1579 12.8011 20.7979 12.4811 20.7979C11.7878 20.7979 10.5078 18.7712 10.0811 16.9046C9.65443 15.2512 10.1878 10.6646 10.7744 10.6646C10.9878 10.6646 11.9478 11.3046 12.9078 12.1046ZM38.4011 13.0646C38.7744 15.7312 38.4011 17.7579 37.2278 19.5712C36.1611 21.2246 35.4144 21.1179 35.4144 19.3046C35.3611 18.5046 35.0411 16.9046 34.6144 15.7312C33.8144 13.5979 33.8144 13.5979 35.5211 12.1046C36.4811 11.3046 37.4411 10.6646 37.6544 10.6646C37.8678 10.6646 38.1878 11.7313 38.4011 13.0646ZM20.7478 22.3979C20.7478 23.3579 20.4278 23.7846 19.5211 23.8912C18.8278 23.9979 18.1878 23.7312 18.0278 23.2512C17.4944 21.8646 18.2411 20.6912 19.5211 20.9046C20.4278 21.0112 20.7478 21.4379 20.7478 22.3979ZM30.3478 22.3979C30.3478 23.3579 30.0278 23.7846 29.1211 23.8912C28.4278 23.9979 27.7878 23.7312 27.6278 23.2512C27.0944 21.8646 27.8411 20.6912 29.1211 20.9046C30.0278 21.0112 30.3478 21.4379 30.3478 22.3979ZM28.3211 26.6112C33.4411 28.9579 33.4411 35.0379 28.3211 37.3846C27.0944 37.9179 25.2278 38.3979 24.2144 38.3979C20.1078 38.3979 16.2144 35.3046 16.2144 31.9979C16.2144 28.6912 20.1078 25.5979 24.2144 25.5979C25.2278 25.5979 27.0944 26.0779 28.3211 26.6112Z" fill="#666666"/>
<path d="M19.6272 31.1438C19.0939 32.5304 19.8406 33.7038 21.1206 33.4904C22.8806 33.2771 22.8806 30.7171 21.1206 30.5038C20.4272 30.3971 19.7872 30.6638 19.6272 31.1438Z" fill="#666666"/>
<path d="M26.0257 31.1438C25.4924 32.5304 26.239 33.7038 27.519 33.4904C29.279 33.2771 29.279 30.7171 27.519 30.5038C26.8257 30.3971 26.1857 30.6638 26.0257 31.1438Z" fill="#666666"/>
</svg>
