<svg width="40" height="27" viewBox="0 0 40 27" fill="none" xmlns="http://www.w3.org/2000/svg">
<path d="M6.53125 6.65667C6.53125 6.36233 6.70325 6.08005 7.0094 5.87193C7.31555 5.6638 7.73078 5.54687 8.16375 5.54688H31.0187C31.4517 5.54688 31.8669 5.6638 32.1731 5.87193C32.4792 6.08005 32.6512 6.36233 32.6512 6.65667C32.6512 6.95101 32.4792 7.23329 32.1731 7.44142C31.8669 7.64954 31.4517 7.76647 31.0187 7.76647H8.16375C7.73078 7.76647 7.31555 7.64954 7.0094 7.44142C6.70325 7.23329 6.53125 6.95101 6.53125 6.65667ZM6.53125 19.9742C6.53125 19.6799 6.70325 19.3976 7.0094 19.1895C7.31555 18.9814 7.73078 18.8644 8.16375 18.8644H31.0187C31.4517 18.8644 31.8669 18.9814 32.1731 19.1895C32.4792 19.3976 32.6512 19.6799 32.6512 19.9742C32.6512 20.2686 32.4792 20.5508 32.1731 20.759C31.8669 20.9671 31.4517 21.084 31.0187 21.084H8.16375C7.73078 21.084 7.31555 20.9671 7.0094 20.759C6.70325 20.5508 6.53125 20.2686 6.53125 19.9742ZM8.16375 12.2057C7.73078 12.2057 7.31555 12.3226 7.0094 12.5307C6.70325 12.7388 6.53125 13.0211 6.53125 13.3154C6.53125 13.6098 6.70325 13.8921 7.0094 14.1002C7.31555 14.3083 7.73078 14.4252 8.16375 14.4252H21.2237C21.6567 14.4252 22.0719 14.3083 22.3781 14.1002C22.6842 13.8921 22.8562 13.6098 22.8562 13.3154C22.8562 13.0211 22.6842 12.7388 22.3781 12.5307C22.0719 12.3226 21.6567 12.2057 21.2237 12.2057H8.16375Z" fill="#156064"/>
</svg>
