<svg width="46" height="49" viewBox="0 0 46 49" fill="none" xmlns="http://www.w3.org/2000/svg">
<g filter="url(#filter0_d_4241_2268)">
<path d="M22.0056 3.11719C21.872 3.17095 21.6962 3.30741 21.5626 3.45628L21.3516 3.70853L21.3586 5.42879C21.3586 7.43024 21.3867 7.56257 21.8087 7.7776C22.0619 7.90579 22.1041 7.91406 22.6245 7.91406H23.1661L23.4193 7.74038C23.5599 7.64527 23.6724 7.53776 23.6795 7.50467C23.6795 7.46746 23.7006 7.40129 23.7287 7.35581C23.7498 7.31032 23.785 6.46673 23.792 5.48254L23.8131 3.69612L23.6443 3.47282C23.4193 3.18749 23.152 3.0717 22.6316 3.05102C22.308 3.03448 22.1885 3.04689 22.0056 3.11719ZM22.2658 3.36117C22.2658 3.38184 22.2026 3.39011 22.1252 3.37771C22.0478 3.3653 21.9845 3.34876 21.9845 3.34049C21.9845 3.33222 22.0478 3.32395 22.1252 3.32395C22.2026 3.32395 22.2658 3.34049 22.2658 3.36117ZM23.2083 3.36117C23.2364 3.38184 23.1872 3.39011 23.1098 3.37771C22.948 3.3529 22.9269 3.32395 23.0676 3.32395C23.1239 3.32395 23.1872 3.34049 23.2083 3.36117ZM23.4615 3.3653C23.4615 3.38598 23.4474 3.40665 23.4333 3.40665C23.4122 3.40665 23.3771 3.38598 23.356 3.3653C23.3349 3.34049 23.3489 3.32395 23.3841 3.32395C23.4263 3.32395 23.4615 3.34049 23.4615 3.3653ZM21.7806 4.00626L21.7384 4.41979L21.7032 4.06829C21.668 3.69199 21.6891 3.5059 21.7735 3.55966C21.8017 3.5762 21.8017 3.77883 21.7806 4.00626ZM23.6724 3.70026C23.6724 3.72093 23.6443 3.73747 23.6021 3.73747C23.5669 3.73747 23.5318 3.70853 23.5318 3.67131C23.5318 3.63823 23.5669 3.62169 23.6021 3.63409C23.6443 3.6465 23.6724 3.67545 23.6724 3.70026ZM21.7524 6.95882C21.7243 7.09115 21.7384 7.2607 21.7735 7.33513C21.8579 7.50881 21.7735 7.46332 21.668 7.27724C21.6188 7.19453 21.6118 7.11183 21.6399 7.07874C21.6751 7.0498 21.7032 6.95469 21.7032 6.86785C21.7032 6.78514 21.7243 6.71484 21.7454 6.71484C21.7735 6.71484 21.7735 6.82236 21.7524 6.95882ZM23.581 6.92988C23.5669 6.98363 23.5529 6.95055 23.5529 6.85958C23.5458 6.7686 23.5599 6.72725 23.581 6.76447C23.5951 6.80582 23.5951 6.88025 23.581 6.92988Z" fill="#666666"/>
<path d="M10.3288 7.95349C10.2217 7.98626 10.0253 8.12393 9.89433 8.26159C9.69791 8.47137 9.65625 8.55003 9.65625 8.76636C9.65625 8.90403 9.70982 9.14002 9.76934 9.28424C9.97765 9.78901 11.0014 11.0804 11.549 11.5262C11.668 11.6245 11.7811 11.7294 11.7989 11.7491C11.8704 11.8474 12.3465 12.0703 12.4834 12.0703C12.8762 12.0703 13.2929 11.6901 13.4 11.2312C13.531 10.6871 13.2988 10.2545 12.1977 9.02858C11.3466 8.0846 10.8585 7.80271 10.3288 7.95349ZM10.6502 8.04526C10.6324 8.06493 10.5788 8.07148 10.5371 8.05182C10.4895 8.03215 10.5074 8.01249 10.5728 8.01249C10.6383 8.00593 10.674 8.0256 10.6502 8.04526ZM10.2395 8.23537C10.2455 8.32059 10.2276 8.40581 10.2038 8.42548C10.1681 8.44515 10.1562 8.18948 10.186 8.0846C10.2038 8.03215 10.2276 8.09771 10.2395 8.23537ZM11.2038 8.3337C11.2038 8.36648 11.2514 8.37959 11.3109 8.35992C11.3883 8.32715 11.3942 8.3337 11.3287 8.38615C11.2395 8.45826 11.0847 8.41892 11.0847 8.32715C11.0847 8.29437 11.1145 8.26815 11.1442 8.26815C11.1799 8.26815 11.2038 8.29437 11.2038 8.3337ZM9.92409 8.64836C9.90623 8.66803 9.85862 8.64836 9.81695 8.60248C9.76338 8.53692 9.76934 8.53037 9.85266 8.5697C9.91218 8.58937 9.94194 8.6287 9.92409 8.64836ZM11.9477 8.92369C11.9656 8.95647 11.9537 8.98925 11.9239 8.98925C11.8882 8.98925 11.8585 8.95647 11.8585 8.92369C11.8585 8.88436 11.8704 8.85814 11.8823 8.85814C11.9001 8.85814 11.9299 8.88436 11.9477 8.92369ZM10.2038 9.45469C10.2336 9.57924 10.2693 9.74968 10.2872 9.84146L10.3169 10.0053L10.2098 9.84146C10.1503 9.74968 10.1145 9.61202 10.1265 9.5268C10.1324 9.44157 10.1086 9.33013 10.061 9.27113C9.99551 9.17936 9.99551 9.1728 10.0729 9.19902C10.1205 9.21213 10.18 9.33013 10.2038 9.45469ZM12.3346 9.57924C12.3346 9.61202 12.3227 9.64479 12.3108 9.64479C12.293 9.64479 12.2632 9.61202 12.2453 9.57924C12.2275 9.53991 12.2394 9.51368 12.2691 9.51368C12.3049 9.51368 12.3346 9.53991 12.3346 9.57924ZM10.6859 9.84146C10.6681 9.91357 10.6443 9.97257 10.6324 9.97257C10.6205 9.97257 10.6086 9.91357 10.6086 9.84146C10.6086 9.76935 10.6324 9.71035 10.6621 9.71035C10.6919 9.71035 10.7038 9.76935 10.6859 9.84146ZM12.6977 10.1889C12.6382 10.2479 12.6322 10.2413 12.6679 10.1496C12.6858 10.084 12.7215 10.0512 12.7394 10.0709C12.7572 10.0906 12.7394 10.143 12.6977 10.1889ZM11.1799 10.9034C11.1799 10.969 11.174 11.0214 11.168 11.0214C11.168 11.0214 11.1204 10.969 11.0669 10.9034C10.9776 10.7986 10.9776 10.7854 11.0728 10.7854C11.1323 10.7854 11.1799 10.8379 11.1799 10.9034ZM11.6501 10.8248C11.668 10.8576 11.6561 10.8903 11.6263 10.8903C11.5906 10.8903 11.5609 10.8576 11.5609 10.8248C11.5609 10.7854 11.5728 10.7592 11.5847 10.7592C11.6025 10.7592 11.6323 10.7854 11.6501 10.8248ZM13.2691 10.9034C13.2512 10.9559 13.2334 10.9362 13.2334 10.8641C13.2274 10.792 13.2453 10.7527 13.2631 10.7789C13.281 10.7986 13.2869 10.8576 13.2691 10.9034ZM13.15 11.0673C13.1322 11.1329 13.1203 11.0935 13.1203 10.9887C13.1203 10.8772 13.1322 10.8313 13.15 10.8707C13.1619 10.9166 13.1619 11.0083 13.15 11.0673ZM11.7692 11.5393C11.7335 11.5721 11.6204 11.4738 11.6204 11.4082C11.6204 11.3754 11.6561 11.382 11.7037 11.4279C11.7513 11.4738 11.7751 11.5262 11.7692 11.5393ZM12.662 11.8736C12.6798 11.913 12.656 11.9195 12.6084 11.8999C12.5013 11.854 12.4834 11.8081 12.5667 11.8081C12.6025 11.8081 12.6441 11.8343 12.662 11.8736Z" fill="#666666"/>
<path d="M34.6427 7.85948C34.3987 7.99714 34.1011 8.2528 33.7558 8.62646C32.6785 9.80645 32.375 10.3047 32.375 10.875C32.375 11.1438 32.4048 11.2224 32.6309 11.4978C32.869 11.7862 32.9107 11.8124 33.1845 11.8124C33.6011 11.819 34.2677 11.4519 34.0832 11.3076C34.0415 11.2749 34.0653 11.2683 34.1427 11.2945C34.2558 11.3273 34.3629 11.2355 34.7677 10.7898C35.7497 9.70156 36.1247 9.09846 36.1247 8.6068C36.1247 8.22003 35.9997 8.01681 35.6129 7.79392C35.2974 7.60381 35.0772 7.62348 34.6427 7.85948ZM35.8509 8.15447C35.8688 8.20691 35.8628 8.23314 35.8271 8.21347C35.7914 8.1938 35.7676 8.14792 35.7676 8.10858C35.7676 8.01681 35.8093 8.03647 35.8509 8.15447ZM34.5653 8.32491C34.4701 8.39047 34.2975 8.39047 34.2618 8.32491C34.2439 8.29869 34.3213 8.27902 34.4344 8.27247C34.5594 8.27247 34.6129 8.29214 34.5653 8.32491ZM36.0652 8.60024C36.0652 8.77068 36.0295 8.71824 35.9819 8.47569C35.9521 8.33147 35.9581 8.30525 36.0057 8.37736C36.0354 8.4298 36.0652 8.53469 36.0652 8.60024ZM33.863 8.77724C33.863 8.81002 33.8332 8.82313 33.7975 8.79691C33.7499 8.77068 33.7439 8.80346 33.7737 8.90179C33.8094 9.0329 33.8035 9.03946 33.7261 8.96079C33.6606 8.89524 33.6547 8.84279 33.6963 8.78379C33.7737 8.68546 33.863 8.67891 33.863 8.77724ZM35.9283 8.9149C35.9104 8.96079 35.8985 8.92801 35.8985 8.83624C35.8985 8.74446 35.9104 8.71168 35.9283 8.75102C35.9402 8.79691 35.9402 8.87557 35.9283 8.9149ZM35.7497 8.98046C35.7319 9.0329 35.714 9.01324 35.714 8.94113C35.7081 8.86902 35.7259 8.82968 35.7438 8.8559C35.7617 8.87557 35.7676 8.93457 35.7497 8.98046ZM33.8035 9.42623C33.8035 9.45901 33.7916 9.49178 33.7797 9.49178C33.7618 9.49178 33.732 9.45901 33.7142 9.42623C33.6963 9.3869 33.7082 9.36067 33.738 9.36067C33.7737 9.36067 33.8035 9.3869 33.8035 9.42623ZM35.47 9.55734C35.47 9.59012 35.4402 9.62289 35.4045 9.62289C35.3748 9.62289 35.3629 9.59012 35.3807 9.55734C35.3986 9.51801 35.4283 9.49178 35.4462 9.49178C35.4581 9.49178 35.47 9.51801 35.47 9.55734ZM33.2083 9.58356C33.2083 9.60323 33.1845 9.636 33.1488 9.65567C33.119 9.67534 33.0892 9.66223 33.0892 9.62945C33.0892 9.59012 33.119 9.55734 33.1488 9.55734C33.1845 9.55734 33.2083 9.57045 33.2083 9.58356ZM35.2319 9.91133C35.2319 9.931 35.2081 9.96378 35.1724 9.98344C35.1426 10.0031 35.1129 9.99 35.1129 9.95722C35.1129 9.91789 35.1426 9.88511 35.1724 9.88511C35.2081 9.88511 35.2319 9.89822 35.2319 9.91133ZM32.7738 10.3899C32.7559 10.4554 32.744 10.4161 32.744 10.3112C32.744 10.1998 32.7559 10.1539 32.7738 10.1932C32.7857 10.2391 32.7857 10.3309 32.7738 10.3899ZM32.5952 10.4227C32.5774 10.4751 32.5595 10.4554 32.5595 10.3833C32.5536 10.3112 32.5714 10.2719 32.5893 10.2981C32.6071 10.3178 32.6131 10.3768 32.5952 10.4227ZM34.4284 10.7242C34.4106 10.7439 34.3629 10.7242 34.3213 10.6783C34.2677 10.6128 34.2737 10.6062 34.357 10.6455C34.4165 10.6652 34.4463 10.7045 34.4284 10.7242ZM32.5952 10.8815C32.5774 10.934 32.5595 10.9143 32.5595 10.8422C32.5536 10.7701 32.5714 10.7308 32.5893 10.757C32.6071 10.7767 32.6131 10.8357 32.5952 10.8815ZM34.5772 10.8291C34.5772 10.8422 34.5296 10.8947 34.476 10.9405C34.3808 11.0258 34.3749 11.0192 34.4522 10.9143C34.5296 10.8094 34.5772 10.7767 34.5772 10.8291ZM34.238 11.111C34.1963 11.1241 34.1249 11.1241 34.0892 11.111C34.0475 11.0913 34.0773 11.0782 34.1606 11.0782C34.2439 11.0782 34.2737 11.0913 34.238 11.111ZM32.7321 11.3273C32.7321 11.3601 32.7202 11.3929 32.7083 11.3929C32.6905 11.3929 32.6607 11.3601 32.6428 11.3273C32.625 11.288 32.6369 11.2618 32.6666 11.2618C32.7024 11.2618 32.7321 11.288 32.7321 11.3273ZM33.1488 11.6551C33.1964 11.6879 33.2142 11.7206 33.1785 11.7206C33.1488 11.7206 33.0773 11.6879 33.0297 11.6551C32.9821 11.6223 32.9702 11.5895 33 11.5895C33.0357 11.5895 33.1011 11.6223 33.1488 11.6551ZM33.4821 11.6682C33.4225 11.7075 33.3511 11.7075 33.3273 11.6813C33.2975 11.6485 33.3452 11.6157 33.4344 11.6092C33.5654 11.6026 33.5773 11.6092 33.4821 11.6682Z" fill="#666666"/>
<path d="M22.5713 9.75312C21.5621 9.85315 19.7599 10.197 19.465 10.3408C19.4061 10.372 19.1243 10.472 18.8359 10.5658C18.0823 10.8096 16.5227 11.5723 16.2605 11.8224C16.2147 11.8661 16.1491 11.9036 16.1164 11.9036C16.0836 11.9036 15.8346 12.0787 15.5528 12.285C15.1662 12.5788 15.0744 12.6788 15.1399 12.7288C15.2055 12.7726 15.1989 12.7789 15.1006 12.7539C14.904 12.6976 13.9276 13.6666 13.0626 14.7606C12.8267 15.0607 12.3679 15.8421 12.0534 16.4985C10.343 19.9806 10.5265 23.9191 12.558 27.2761C13.1216 28.2076 13.3968 28.5702 13.8752 29.0078C14.3405 29.4329 14.714 29.5829 15.0089 29.4704C15.4742 29.2829 15.7232 28.864 15.5987 28.4764C15.5004 28.1576 14.8844 27.2636 14.8057 27.3136C14.7664 27.3386 14.7402 27.3324 14.7467 27.3011C14.7664 27.1886 14.7336 27.1136 14.6222 26.9948C13.7179 26.0508 13.0036 24.0128 12.8725 21.9998C12.7939 20.7808 13.0888 18.9866 13.5344 17.9864C13.5868 17.8801 13.6262 17.7738 13.6262 17.7551C13.6262 17.5988 14.2618 16.486 14.7271 15.8233C14.8909 15.592 15.0023 15.3857 14.9827 15.3607C14.9565 15.3357 14.8909 15.3732 14.8319 15.442C14.773 15.5108 14.7467 15.5233 14.7664 15.467C14.7861 15.417 14.8254 15.3232 14.845 15.2607C14.8844 15.1544 14.8909 15.1544 14.9696 15.2607C15.0482 15.3607 15.0679 15.3482 15.2382 15.1544C15.3431 15.0357 15.6118 14.7543 15.8346 14.5355C16.0574 14.3167 16.2212 14.1042 16.2081 14.0604C16.1885 14.0167 16.2081 13.9604 16.2409 13.9354C16.2802 13.9166 16.2999 13.8666 16.2802 13.8354C16.254 13.8041 16.2868 13.7791 16.3392 13.7791C16.4702 13.7791 16.4768 13.8979 16.3457 13.9416C16.2474 13.9791 16.2081 14.0917 16.2999 14.0917C16.3261 14.0917 16.4506 13.9979 16.5751 13.8854C16.6996 13.7728 16.9028 13.6166 17.0207 13.5353C17.1387 13.4603 17.2173 13.3728 17.2042 13.3477C17.1845 13.3227 17.2042 13.2977 17.2501 13.2977C17.2959 13.2977 17.486 13.204 17.676 13.0914C17.9382 12.9414 18.0037 12.8726 17.9382 12.8289C17.8857 12.7976 17.9185 12.7914 18.0299 12.8164C18.161 12.8414 18.2199 12.8289 18.2527 12.7539C18.2724 12.6976 18.3313 12.6538 18.3772 12.6538C18.4231 12.6538 18.7114 12.5413 19.0194 12.4038C19.5175 12.185 19.9696 12.0474 21.0313 11.7849C21.5948 11.6473 21.857 11.6286 23.1611 11.6286C24.262 11.6348 24.5831 11.6536 25.1598 11.7724C27.7745 12.3037 29.8191 13.504 31.3263 15.4107C31.6147 15.7733 32.27 16.8486 32.46 17.2799C32.5583 17.505 32.7025 17.8113 32.768 17.9551C32.9974 18.4365 33.3382 19.6805 33.443 20.3995C33.751 22.4875 33.3185 24.1879 31.9882 26.1071C30.9528 27.6012 29.5504 28.7015 27.342 29.7517C26.8243 30.0018 26.4245 30.2206 26.4573 30.2518C26.4835 30.2769 26.4704 30.2831 26.4245 30.2581C26.3852 30.2393 26.1165 30.3081 25.8348 30.4144C24.4913 30.9333 22.1846 31.6084 20.4415 32.0023C19.1833 32.2836 18.3117 32.5462 18.3051 32.6462C18.2986 32.6899 18.292 32.7462 18.2855 32.7837C18.2855 32.815 18.2462 32.8462 18.2068 32.8462C18.1544 32.8462 18.1544 32.815 18.2134 32.7525C18.2593 32.6962 18.2658 32.6587 18.2265 32.6587C18.1216 32.6587 17.8399 33.0088 17.7416 33.2651C17.676 33.4401 17.6564 33.9402 17.6564 35.1905C17.6564 36.7722 17.6629 36.891 17.7874 37.0973C18.1413 37.6724 18.7573 37.6724 20.8347 37.1035C21.3589 36.9597 21.9487 36.7972 22.1453 36.7409C22.3419 36.6909 22.7285 36.5784 22.9972 36.5034C24.9894 35.922 26.0576 35.7282 26.2607 35.922C26.3459 36.0032 26.359 36.5846 26.2804 36.8472C26.2411 36.9785 26.1428 37.0222 25.4874 37.1973C24.2882 37.5099 23.2725 37.7662 22.6368 37.9037C22.3157 37.9787 21.68 38.1475 21.2344 38.285C20.7822 38.4226 20.1204 38.5914 19.7599 38.6664C19.393 38.7414 19.0719 38.8227 19.0391 38.8539C18.9998 38.8852 18.9211 38.9102 18.8556 38.9102C18.7901 38.9102 18.5869 39.0477 18.41 39.2103C18.1216 39.4791 18.0823 39.5416 18.0823 39.7729C18.0823 39.9104 18.1085 40.098 18.1479 40.1855C18.2265 40.3918 18.5869 40.7169 18.7835 40.7606C18.967 40.8044 18.9539 40.8107 20.3104 40.4418C20.9002 40.2855 21.7783 40.0605 22.2567 39.9417C22.7416 39.8229 23.2266 39.6979 23.3445 39.6666C23.5805 39.5916 24.9697 39.1915 25.4219 39.0665C25.5857 39.0227 25.9527 38.9352 26.2411 38.8789C27.4534 38.6414 27.8794 38.4538 28.148 38.0662C28.266 37.8974 28.2725 37.7537 28.2725 36.1908C28.2725 33.8715 28.2136 33.7152 27.3092 33.6714C26.8964 33.6464 26.0051 33.784 25.7561 33.909C25.6971 33.9402 25.4612 34.009 25.2253 34.0653C24.9894 34.1215 24.4913 34.2466 24.1113 34.3466C23.7312 34.4466 23.2921 34.5591 23.1348 34.6029C22.912 34.6529 22.8662 34.6842 22.9382 34.7342C23.0038 34.7779 22.9907 34.7842 22.8858 34.7529C22.8006 34.7342 22.3878 34.8092 21.9028 34.9405C20.3825 35.3593 19.9303 35.4281 19.6813 35.2968C19.465 35.1843 19.4323 34.9405 19.5961 34.6217C19.8648 34.0903 20.2973 33.8965 22.4599 33.3776C24.0523 32.99 24.7142 32.8087 24.9959 32.6899C25.1073 32.6462 25.2646 32.5899 25.3564 32.5649C26.1428 32.3461 28.6395 31.1896 29.6159 30.5957C30.3237 30.1581 30.3958 30.1018 30.3565 29.9768C30.3302 29.8955 30.3368 29.8955 30.3892 29.9643C30.4416 30.033 30.4941 30.0268 30.671 29.9018C30.7955 29.8267 30.9069 29.7392 30.9266 29.7205C30.9462 29.7017 31.1822 29.5142 31.4508 29.3016C31.9554 28.914 32.8598 28.0388 33.1547 27.6637C33.2464 27.5449 33.3578 27.4137 33.4102 27.3636C33.5806 27.1949 34.1376 26.3446 34.4063 25.832C34.9896 24.713 35.3303 23.5315 35.4548 22.1499C35.5269 21.3872 35.5269 21.1496 35.4286 20.3557C35.2976 19.2367 34.9175 17.705 34.7209 17.4988C34.6881 17.4675 34.6619 17.405 34.6619 17.355C34.6619 17.1737 33.8755 15.7108 33.7969 15.7546C33.751 15.7796 33.7445 15.7733 33.7707 15.7233C33.8297 15.642 33.3185 14.8669 32.8074 14.2542C32.4011 13.7728 31.3788 12.7038 31.346 12.7351C31.3329 12.7476 31.1756 12.6226 30.9987 12.4663C30.5072 12.0224 29.3931 11.3285 28.5543 10.9409C27.709 10.5533 26.4442 10.1282 26.2607 10.172C26.1952 10.1907 26.1559 10.1845 26.1755 10.1595C26.2017 10.1157 25.802 10.0219 24.8321 9.84064C24.4455 9.76562 22.9972 9.70936 22.5713 9.75312ZM21.7325 10.0032C21.7128 10.0219 21.6538 10.0282 21.6079 10.0094C21.5555 9.99068 21.5752 9.97193 21.6473 9.97193C21.7193 9.96567 21.7587 9.98443 21.7325 10.0032ZM20.933 10.0907C20.9133 10.122 20.8412 10.1532 20.7822 10.147C20.6905 10.147 20.697 10.1345 20.8019 10.0907C20.9788 10.0219 20.9788 10.0219 20.933 10.0907ZM21.8373 10.1345C21.7914 10.147 21.6997 10.147 21.6407 10.1345C21.5752 10.1157 21.6145 10.1032 21.7193 10.1032C21.8308 10.1032 21.8766 10.1157 21.8373 10.1345ZM25.1336 10.1657C25.0746 10.197 24.9828 10.197 24.9239 10.1657C24.8452 10.1282 24.878 10.1095 25.0287 10.1095C25.1794 10.1095 25.2122 10.1282 25.1336 10.1657ZM26.9095 10.4408C26.8898 10.4595 26.8308 10.4658 26.785 10.447C26.7325 10.4283 26.7522 10.4095 26.8243 10.4095C26.8964 10.4033 26.9357 10.422 26.9095 10.4408ZM27.224 10.5908C27.2044 10.6221 27.0733 10.6471 26.9422 10.6471L26.6998 10.6346L26.9619 10.5908C27.1061 10.5658 27.2306 10.5408 27.2437 10.5346C27.2568 10.5346 27.2437 10.5533 27.224 10.5908ZM19.1505 10.6971C19.1046 10.7096 19.026 10.7096 18.9867 10.6971C18.9408 10.6783 18.9736 10.6658 19.0653 10.6658C19.157 10.6658 19.1898 10.6783 19.1505 10.6971ZM28.7247 11.1847C28.7444 11.241 28.7247 11.2785 28.6657 11.2785C28.5609 11.2785 28.4888 11.191 28.5478 11.1285C28.6133 11.0659 28.6854 11.0847 28.7247 11.1847ZM22.3222 11.3785C22.3026 11.3973 22.2436 11.4035 22.1977 11.3848C22.1453 11.366 22.165 11.3473 22.2371 11.3473C22.3091 11.341 22.3485 11.3598 22.3222 11.3785ZM24.262 11.3848C24.2161 11.3973 24.1375 11.3973 24.0982 11.3848C24.0523 11.366 24.0851 11.3535 24.1768 11.3535C24.2685 11.3535 24.3013 11.366 24.262 11.3848ZM25.0746 11.441C25.0549 11.4598 24.9959 11.466 24.9501 11.4473C24.8976 11.4285 24.9173 11.4098 24.9894 11.4098C25.0615 11.4035 25.1008 11.4223 25.0746 11.441ZM24.2227 11.5035C24.203 11.5223 24.144 11.5286 24.0982 11.5098C24.0457 11.491 24.0654 11.4723 24.1375 11.4723C24.2096 11.466 24.2489 11.4848 24.2227 11.5035ZM29.5176 11.5911C29.5373 11.6286 29.5111 11.6348 29.4587 11.6161C29.3407 11.5723 29.3211 11.5286 29.4128 11.5286C29.4521 11.5286 29.498 11.5536 29.5176 11.5911ZM16.9683 11.6536C16.9683 11.6848 16.9421 11.7161 16.9093 11.7161C16.87 11.7161 16.8241 11.6848 16.8045 11.6536C16.7848 11.6161 16.811 11.5911 16.8634 11.5911C16.9224 11.5911 16.9683 11.6161 16.9683 11.6536ZM19.8976 11.8161C19.8779 11.8349 19.8189 11.8411 19.773 11.8224C19.7206 11.8036 19.7403 11.7849 19.8124 11.7849C19.8845 11.7786 19.9238 11.7974 19.8976 11.8161ZM25.992 11.8161C25.9724 11.8349 25.9134 11.8411 25.8675 11.8224C25.8151 11.8036 25.8348 11.7849 25.9068 11.7849C25.9789 11.7786 26.0182 11.7974 25.992 11.8161ZM26.7391 11.8349C26.667 11.8786 26.6736 11.8974 26.7719 11.9161C26.8833 11.9349 26.8833 11.9412 26.7456 11.9787C26.667 11.9974 26.6146 11.9912 26.6408 11.9599C26.6605 11.9286 26.6342 11.9036 26.5884 11.9036C26.5294 11.9036 26.5294 11.8849 26.6015 11.8411C26.6539 11.8099 26.7325 11.7786 26.7653 11.7786C26.8046 11.7786 26.7915 11.8036 26.7391 11.8349ZM20.2252 11.8786C20.2056 11.8974 20.1466 11.9036 20.1007 11.8849C20.0483 11.8661 20.0679 11.8474 20.14 11.8474C20.2121 11.8411 20.2514 11.8599 20.2252 11.8786ZM18.7245 12.3538C18.7114 12.3913 18.659 12.435 18.6197 12.4413C18.5738 12.4475 18.5673 12.4413 18.6066 12.4225C18.6393 12.41 18.659 12.3663 18.6328 12.335C18.6131 12.3037 18.6328 12.2787 18.6721 12.2787C18.718 12.2787 18.7376 12.31 18.7245 12.3538ZM15.6576 12.5288C15.6576 12.5601 15.6118 12.5726 15.5593 12.5538C15.5069 12.5288 15.4807 12.4913 15.5004 12.46C15.5397 12.3913 15.6576 12.4475 15.6576 12.5288ZM15.6249 12.7163C15.6445 12.7539 15.6183 12.7601 15.5659 12.7413C15.4479 12.6976 15.4283 12.6538 15.52 12.6538C15.5593 12.6538 15.6052 12.6788 15.6249 12.7163ZM28.8165 12.9727C28.7968 13.0227 28.7706 12.9914 28.7444 12.9101C28.7182 12.8039 28.7247 12.7789 28.7771 12.8289C28.8099 12.8601 28.8296 12.9289 28.8165 12.9727ZM31.4836 13.0289C31.5033 13.0602 31.4902 13.0914 31.4574 13.0914C31.4181 13.0914 31.3853 13.0602 31.3853 13.0289C31.3853 12.9914 31.3984 12.9664 31.4115 12.9664C31.4312 12.9664 31.4639 12.9914 31.4836 13.0289ZM17.486 13.0477C17.4729 13.0539 17.4008 13.1039 17.3287 13.1539C17.2042 13.2415 17.2042 13.2415 17.2894 13.1352C17.3353 13.0789 17.4073 13.0289 17.4467 13.0289C17.486 13.0289 17.4991 13.0352 17.486 13.0477ZM14.9696 13.2165C14.9499 13.2477 14.8778 13.279 14.8188 13.2727C14.7271 13.2727 14.7336 13.2602 14.8385 13.2165C15.0154 13.1477 15.0154 13.1477 14.9696 13.2165ZM16.9814 13.3227C16.9421 13.3415 16.9159 13.379 16.9421 13.4103C16.9945 13.4978 16.8634 13.479 16.7848 13.3853C16.7324 13.329 16.7586 13.3102 16.8896 13.304C16.9879 13.2977 17.0273 13.3102 16.9814 13.3227ZM29.747 13.3665C29.7208 13.3915 29.6422 13.3915 29.5766 13.354C29.4718 13.2977 29.4849 13.2915 29.6291 13.2977C29.7274 13.304 29.7798 13.3352 29.747 13.3665ZM31.8768 13.5165C31.8375 13.5603 31.6474 13.404 31.6474 13.3227C31.6474 13.2915 31.7064 13.3102 31.7785 13.3728C31.8506 13.4353 31.8965 13.4978 31.8768 13.5165ZM29.4914 13.4478C29.5766 13.554 29.5766 13.554 29.4521 13.4665C29.38 13.4165 29.3079 13.3665 29.2948 13.3602C29.2817 13.3477 29.2948 13.3415 29.3342 13.3415C29.3735 13.3415 29.4456 13.3915 29.4914 13.4478ZM14.347 13.5603C14.3011 13.6166 14.2487 13.6416 14.229 13.6228C14.2094 13.6103 14.2356 13.554 14.2815 13.4978C14.3273 13.4415 14.3798 13.4165 14.3994 13.4353C14.4191 13.4478 14.3929 13.504 14.347 13.5603ZM32.1717 13.7166C32.1717 13.7478 32.1389 13.7791 32.0996 13.7791C32.0668 13.7791 32.0537 13.7478 32.0734 13.7166C32.0931 13.6791 32.1258 13.6541 32.1455 13.6541C32.1586 13.6541 32.1717 13.6791 32.1717 13.7166ZM15.7887 13.8416C15.7887 13.8729 15.7625 13.9041 15.7232 13.9041C15.6904 13.9041 15.6576 13.8729 15.6576 13.8416C15.6576 13.8041 15.6904 13.7791 15.7232 13.7791C15.7625 13.7791 15.7887 13.8041 15.7887 13.8416ZM30.1074 13.8916C30.0878 13.9104 30.0354 13.8916 29.9895 13.8479C29.9305 13.7854 29.9371 13.7791 30.0288 13.8166C30.0943 13.8354 30.1271 13.8729 30.1074 13.8916ZM14.0849 14.1542C14.0849 14.1854 14.0521 14.2167 14.0128 14.2167C13.98 14.2167 13.9669 14.1854 13.9866 14.1542C14.0062 14.1167 14.039 14.0917 14.0587 14.0917C14.0718 14.0917 14.0849 14.1167 14.0849 14.1542ZM15.2317 14.8419C15.2513 14.8731 15.2382 14.9044 15.2055 14.9044C15.1662 14.9044 15.1334 14.8731 15.1334 14.8419C15.1334 14.8043 15.1465 14.7793 15.1596 14.7793C15.1793 14.7793 15.212 14.8043 15.2317 14.8419ZM31.1887 14.8419C31.1428 14.8669 31.1297 14.9231 31.1494 14.9606C31.2215 15.0669 31.1559 15.0419 31.038 14.9169C30.9462 14.8169 30.9462 14.8106 31.1035 14.7981C31.2149 14.7918 31.2411 14.8106 31.1887 14.8419ZM33.1154 15.0607C33.0891 15.1107 33.0629 15.1544 33.0498 15.1544C33.0367 15.1544 33.0236 15.1107 33.0236 15.0607C33.0236 15.0106 33.0498 14.9669 33.0891 14.9669C33.1219 14.9669 33.135 15.0106 33.1154 15.0607ZM31.3657 15.1669C31.346 15.2169 31.3263 15.1982 31.3263 15.1294C31.3198 15.0607 31.3394 15.0232 31.3591 15.0482C31.3788 15.0669 31.3853 15.1232 31.3657 15.1669ZM13.0167 15.342C13.0102 15.417 12.9839 15.442 12.9512 15.4107C12.9184 15.3795 12.9119 15.3232 12.9315 15.2857C13.0036 15.1857 13.0298 15.2044 13.0167 15.342ZM12.9512 15.6671C12.9315 15.7171 12.9119 15.6983 12.9119 15.6295C12.9053 15.5608 12.925 15.5233 12.9446 15.5483C12.9643 15.567 12.9708 15.6233 12.9512 15.6671ZM33.6134 15.8296C33.6134 15.9234 33.6003 15.9234 33.5479 15.8421C33.4627 15.7171 33.4627 15.6358 33.5479 15.6858C33.5872 15.7046 33.6134 15.7733 33.6134 15.8296ZM31.8571 15.8546C31.8113 15.8984 31.7785 15.9046 31.7785 15.8671C31.7785 15.7796 31.8571 15.7046 31.903 15.7483C31.9161 15.7671 31.8965 15.8171 31.8571 15.8546ZM12.4466 16.0859C12.4138 16.1547 12.3483 16.2297 12.309 16.2547C12.2696 16.2735 12.2893 16.2234 12.3483 16.1297C12.4793 15.9421 12.5449 15.9109 12.4466 16.0859ZM14.2487 16.2422C14.1766 16.2922 14.1504 16.3547 14.1832 16.4047C14.2159 16.461 14.2094 16.4735 14.1635 16.4422C14.1176 16.4172 14.0849 16.3672 14.0849 16.3297C14.0849 16.2547 14.3011 16.0859 14.3405 16.1297C14.3601 16.1422 14.3142 16.1922 14.2487 16.2422ZM33.7248 16.2297C33.7051 16.2797 33.6855 16.261 33.6855 16.1922C33.6789 16.1234 33.6986 16.0859 33.7182 16.1109C33.7379 16.1297 33.7445 16.1859 33.7248 16.2297ZM33.9214 16.2297C33.9017 16.2797 33.8821 16.261 33.8821 16.1922C33.8755 16.1234 33.8952 16.0859 33.9148 16.1109C33.9345 16.1297 33.9411 16.1859 33.9214 16.2297ZM12.4269 16.4172C12.4073 16.4673 12.3876 16.4485 12.3876 16.3797C12.381 16.311 12.4007 16.2735 12.4204 16.2985C12.44 16.3172 12.4466 16.3735 12.4269 16.4172ZM34.0525 16.4798C34.0328 16.5235 34.0197 16.4923 34.0197 16.4047C34.0197 16.3172 34.0328 16.286 34.0525 16.3235C34.0656 16.3672 34.0656 16.4422 34.0525 16.4798ZM32.3748 16.6986C32.2962 16.8236 32.2831 16.7861 32.3421 16.6235C32.3683 16.5673 32.4011 16.536 32.4142 16.5548C32.4338 16.5673 32.4142 16.636 32.3748 16.6986ZM34.1376 16.8548C34.1376 17.0924 34.1049 17.0674 34.0525 16.7923C34.0262 16.661 34.0328 16.5985 34.0721 16.6235C34.1114 16.6423 34.1376 16.7486 34.1376 16.8548ZM34.3998 17.0361C34.3998 17.0736 34.3736 17.0799 34.3342 17.0611C34.3015 17.0424 34.2687 16.9924 34.2687 16.9611C34.2687 16.9236 34.3015 16.9174 34.3342 16.9361C34.3736 16.9549 34.3998 17.0049 34.3998 17.0361ZM13.6917 17.0299C13.6917 17.0611 13.6786 17.0924 13.6655 17.0924C13.6458 17.0924 13.613 17.0611 13.5934 17.0299C13.5737 16.9924 13.5868 16.9674 13.6196 16.9674C13.6589 16.9674 13.6917 16.9924 13.6917 17.0299ZM11.9682 17.7301C11.9485 17.7801 11.9289 17.7613 11.9289 17.6925C11.9223 17.6238 11.942 17.5863 11.9616 17.6113C11.9813 17.63 11.9879 17.6863 11.9682 17.7301ZM33.3971 18.6678C33.3775 18.7115 33.3644 18.6803 33.3644 18.5928C33.3644 18.5052 33.3775 18.474 33.3971 18.5115C33.4102 18.5553 33.4102 18.6303 33.3971 18.6678ZM13.1543 18.7866C13.1347 18.8366 13.1085 18.8053 13.0822 18.724C13.056 18.6178 13.0626 18.5928 13.115 18.6428C13.1478 18.674 13.1674 18.7428 13.1543 18.7866ZM11.4439 18.7928C11.4243 18.8428 11.4046 18.8241 11.4046 18.7553C11.3981 18.6865 11.4177 18.649 11.4374 18.674C11.457 18.6928 11.4636 18.7491 11.4439 18.7928ZM13.0167 19.0116C12.997 19.0741 12.9839 19.0366 12.9839 18.9366C12.9839 18.8303 12.997 18.7866 13.0167 18.8241C13.0298 18.8678 13.0298 18.9554 13.0167 19.0116ZM33.2923 18.9491C33.2136 19.0741 33.2005 19.0366 33.2595 18.8741C33.2857 18.8178 33.3185 18.7866 33.3316 18.8053C33.3513 18.8178 33.3316 18.8866 33.2923 18.9491ZM11.3784 19.2304C11.3587 19.2804 11.3391 19.2617 11.3391 19.1929C11.3325 19.1241 11.3522 19.0866 11.3719 19.1116C11.3915 19.1304 11.3981 19.1867 11.3784 19.2304ZM11.2473 19.3555C11.2277 19.4055 11.208 19.3867 11.208 19.3179C11.2015 19.2492 11.2211 19.2117 11.2408 19.2367C11.2605 19.2554 11.267 19.3117 11.2473 19.3555ZM11.3129 20.0744C11.2998 20.2057 11.2867 20.1119 11.2867 19.8743C11.2867 19.6305 11.2998 19.5305 11.3129 19.6368C11.326 19.7493 11.326 19.9493 11.3129 20.0744ZM33.4627 19.668C33.443 19.718 33.4234 19.6993 33.4234 19.6305C33.4168 19.5618 33.4365 19.5242 33.4561 19.5492C33.4758 19.568 33.4823 19.6243 33.4627 19.668ZM11.1818 19.8868C11.1622 19.9493 11.149 19.8993 11.149 19.7806C11.149 19.6618 11.1622 19.6118 11.1818 19.668C11.1949 19.7305 11.1949 19.8306 11.1818 19.8868ZM35.232 19.7305C35.2124 19.7806 35.1927 19.7618 35.1927 19.693C35.1862 19.6243 35.2058 19.5868 35.2255 19.6118C35.2451 19.6305 35.2517 19.6868 35.232 19.7305ZM35.2976 20.2307C35.2779 20.2807 35.2582 20.2619 35.2582 20.1932C35.2517 20.1244 35.2714 20.0869 35.291 20.1119C35.3107 20.1306 35.3172 20.1869 35.2976 20.2307ZM12.6694 20.2557C12.689 20.3057 12.6825 20.3307 12.6432 20.3119C12.6039 20.2932 12.5776 20.3057 12.5776 20.3494C12.5776 20.3932 12.5645 20.412 12.5449 20.3932C12.5121 20.3619 12.5711 20.1556 12.6104 20.1556C12.6235 20.1556 12.6497 20.1994 12.6694 20.2557ZM11.2211 20.7308C11.208 20.762 11.1687 20.7808 11.1294 20.7808C11.0573 20.7808 11.0507 20.587 11.1163 20.4245C11.1556 20.3307 11.1687 20.3432 11.2015 20.4995C11.2277 20.5995 11.2342 20.7058 11.2211 20.7308ZM12.5776 20.8246C12.5056 20.9308 12.5056 20.9308 12.5383 20.8246C12.558 20.762 12.5842 20.662 12.5842 20.6058C12.5907 20.512 12.5973 20.512 12.6235 20.6058C12.6366 20.6683 12.617 20.762 12.5776 20.8246ZM35.1665 20.7308C35.1468 20.7808 35.1272 20.762 35.1272 20.6933C35.1206 20.6245 35.1403 20.587 35.1599 20.612C35.1796 20.6308 35.1862 20.687 35.1665 20.7308ZM33.9214 20.9808C33.9017 21.0246 33.8886 20.9933 33.8886 20.9058C33.8886 20.8183 33.9017 20.787 33.9214 20.8246C33.9345 20.8683 33.9345 20.9433 33.9214 20.9808ZM12.7611 21.4997C12.7546 21.681 12.7546 21.681 12.7087 21.4685L12.6628 21.2497L12.6497 21.5185C12.6497 21.6685 12.6628 21.7748 12.6956 21.7623C12.7218 21.7435 12.7284 21.8623 12.7153 22.0186L12.6825 22.3124L12.6301 21.9686C12.6039 21.781 12.5973 21.4685 12.6235 21.2809C12.6628 20.9746 12.6694 20.9558 12.7153 21.1246C12.7349 21.2247 12.7611 21.3934 12.7611 21.4997ZM33.9214 21.6685C33.9083 21.7498 33.8952 21.6873 33.8952 21.531C33.8952 21.3747 33.9083 21.3122 33.9214 21.3872C33.9345 21.4685 33.9345 21.5935 33.9214 21.6685ZM35.2976 22.0123C35.2779 22.0749 35.2648 22.0374 35.2648 21.9373C35.2648 21.8311 35.2779 21.7873 35.2976 21.8248C35.3107 21.8686 35.3107 21.9561 35.2976 22.0123ZM33.8559 22.2311C33.8362 22.2812 33.8165 22.2624 33.8165 22.1936C33.81 22.1249 33.8297 22.0874 33.8493 22.1124C33.869 22.1311 33.8755 22.1874 33.8559 22.2311ZM35.1665 22.2311C35.1468 22.2812 35.1272 22.2624 35.1272 22.1936C35.1206 22.1249 35.1403 22.0874 35.1599 22.1124C35.1796 22.1311 35.1862 22.1874 35.1665 22.2311ZM35.1206 22.825C35.0485 22.9313 35.0485 22.9313 35.0813 22.825C35.101 22.7625 35.1206 22.675 35.1272 22.6375C35.1272 22.5812 35.1403 22.5812 35.1599 22.6375C35.1796 22.6813 35.1599 22.7625 35.1206 22.825ZM11.1163 22.9188C11.0966 22.9688 11.077 22.9501 11.077 22.8813C11.0704 22.8125 11.0901 22.775 11.1097 22.8C11.1294 22.8188 11.1359 22.8751 11.1163 22.9188ZM11.3784 22.9188C11.3587 22.9688 11.3391 22.9501 11.3391 22.8813C11.3325 22.8125 11.3522 22.775 11.3719 22.8C11.3915 22.8188 11.3981 22.8751 11.3784 22.9188ZM12.689 23.2314C12.6694 23.2752 12.6563 23.2439 12.6563 23.1564C12.6563 23.0689 12.6694 23.0376 12.689 23.0751C12.7022 23.1189 12.7022 23.1939 12.689 23.2314ZM11.2473 23.2314C11.2277 23.2814 11.208 23.2626 11.208 23.1939C11.2015 23.1251 11.2211 23.0876 11.2408 23.1126C11.2605 23.1314 11.267 23.1876 11.2473 23.2314ZM12.8201 23.669C12.8005 23.719 12.7808 23.7003 12.7808 23.6315C12.7742 23.5627 12.7939 23.5252 12.8136 23.5502C12.8332 23.569 12.8398 23.6252 12.8201 23.669ZM35.1206 23.694C35.1206 23.744 35.0944 23.7815 35.0551 23.7815C35.0223 23.7815 34.9896 23.7253 34.9896 23.6502C34.9896 23.5815 35.0223 23.544 35.0551 23.5627C35.0944 23.5815 35.1206 23.644 35.1206 23.694ZM33.4037 23.8753C33.384 23.8941 33.3447 23.8628 33.3251 23.8003C33.2857 23.7128 33.2923 23.7065 33.3578 23.7628C33.4037 23.8065 33.4234 23.8565 33.4037 23.8753ZM11.3784 24.1691C11.3587 24.2191 11.3391 24.2004 11.3391 24.1316C11.3325 24.0628 11.3522 24.0253 11.3719 24.0503C11.3915 24.0691 11.3981 24.1254 11.3784 24.1691ZM13.0822 24.1691C13.0626 24.2191 13.0429 24.2004 13.0429 24.1316C13.0364 24.0628 13.056 24.0253 13.0757 24.0503C13.0953 24.0691 13.1019 24.1254 13.0822 24.1691ZM34.8257 24.613C34.7995 24.7005 34.7471 24.788 34.7012 24.8005C34.6422 24.8255 34.6488 24.7693 34.7209 24.6255C34.8388 24.3879 34.8847 24.3817 34.8257 24.613ZM13.174 24.7005C13.0953 24.8255 13.0822 24.788 13.1412 24.6255C13.1674 24.5692 13.2002 24.538 13.2133 24.5567C13.233 24.5692 13.2133 24.638 13.174 24.7005ZM11.9813 25.3006C11.9879 25.3319 11.9616 25.3382 11.9289 25.3194C11.8961 25.2944 11.8568 25.3006 11.8371 25.3256C11.824 25.3569 11.824 25.3382 11.8371 25.2944C11.8437 25.2444 11.8568 25.1631 11.8633 25.1068C11.8633 25.0193 11.8765 25.0256 11.9223 25.1256C11.9551 25.1944 11.9813 25.2756 11.9813 25.3006ZM11.7061 25.2319C11.6864 25.2819 11.6667 25.2631 11.6667 25.1944C11.6602 25.1256 11.6799 25.0881 11.6995 25.1131C11.7192 25.1319 11.7257 25.1881 11.7061 25.2319ZM32.6304 25.5882C32.6304 25.6257 32.6042 25.6695 32.5649 25.6882C32.5321 25.707 32.4994 25.682 32.4994 25.632C32.4994 25.5757 32.5321 25.5319 32.5649 25.5319C32.6042 25.5319 32.6304 25.557 32.6304 25.5882ZM13.7048 25.807C13.731 25.9133 13.7113 25.9508 13.6458 25.9258C13.5475 25.8883 13.5475 25.8883 13.5999 25.757C13.6524 25.6195 13.672 25.632 13.7048 25.807ZM34.0852 25.9195C34.0394 25.9633 34.0066 25.9696 34.0066 25.932C34.0066 25.8445 34.0852 25.7695 34.1311 25.8133C34.1442 25.832 34.1245 25.882 34.0852 25.9195ZM33.7903 26.6697C33.7707 26.7197 33.751 26.701 33.751 26.6322C33.7445 26.5634 33.7641 26.5259 33.7838 26.5509C33.8034 26.5697 33.81 26.626 33.7903 26.6697ZM12.5121 26.7072C12.5121 26.7823 12.4925 26.7823 12.4138 26.7197C12.3614 26.676 12.3155 26.6385 12.3155 26.626C12.3155 26.6197 12.3614 26.6135 12.4138 26.6135C12.4662 26.6135 12.5121 26.6572 12.5121 26.7072ZM33.6003 26.7823C33.5937 26.8885 33.5675 26.951 33.5413 26.926C33.4954 26.8823 33.5282 26.5947 33.5806 26.5947C33.5937 26.5947 33.6003 26.6822 33.6003 26.7823ZM13.6917 26.7197C13.6917 26.751 13.6655 26.7823 13.6262 26.7823C13.5934 26.7823 13.5606 26.751 13.5606 26.7197C13.5606 26.6822 13.5934 26.6572 13.6262 26.6572C13.6655 26.6572 13.6917 26.6822 13.6917 26.7197ZM12.8725 27.4699C12.8922 27.5012 12.8791 27.5324 12.8463 27.5324C12.807 27.5324 12.7742 27.5012 12.7742 27.4699C12.7742 27.4324 12.7873 27.4074 12.8005 27.4074C12.8201 27.4074 12.8529 27.4324 12.8725 27.4699ZM31.1232 27.4699C31.1232 27.5012 31.0904 27.5324 31.0511 27.5324C31.0183 27.5324 31.0052 27.5012 31.0249 27.4699C31.0445 27.4324 31.0773 27.4074 31.097 27.4074C31.1101 27.4074 31.1232 27.4324 31.1232 27.4699ZM31.3394 27.6575C31.3591 27.7262 31.346 27.7825 31.3132 27.7825C31.2805 27.7825 31.2542 27.7262 31.2542 27.6575C31.2542 27.5887 31.2674 27.5324 31.2805 27.5324C31.2936 27.5324 31.3198 27.5887 31.3394 27.6575ZM13.0364 27.6575C13.0364 27.6887 13.0036 27.72 12.9643 27.72C12.9315 27.72 12.9184 27.6887 12.9381 27.6575C12.9577 27.62 12.9905 27.5949 13.0102 27.5949C13.0233 27.5949 13.0364 27.62 13.0364 27.6575ZM30.8873 27.645C30.9069 27.6762 30.8807 27.7012 30.8283 27.7012C30.7759 27.7012 30.7496 27.6762 30.7693 27.645C30.789 27.62 30.8152 27.5949 30.8283 27.5949C30.8414 27.5949 30.8676 27.62 30.8873 27.645ZM13.2985 27.9513C13.2985 28.0763 13.2788 28.1013 13.2264 28.0513C13.1805 28.0076 13.1674 27.9325 13.1871 27.8825C13.2526 27.7325 13.2985 27.7637 13.2985 27.9513ZM32.7025 27.8388C32.6566 27.87 32.6304 27.9263 32.6566 27.9638C32.6894 28.0076 32.6632 28.0201 32.6042 27.995C32.4797 27.9513 32.4666 27.87 32.5845 27.8263C32.7156 27.77 32.8008 27.7825 32.7025 27.8388ZM15.2645 28.2451C15.2645 28.2639 15.2382 28.2951 15.1989 28.3139C15.1662 28.3326 15.1334 28.3201 15.1334 28.2889C15.1334 28.2514 15.1662 28.2201 15.1989 28.2201C15.2382 28.2201 15.2645 28.2326 15.2645 28.2451ZM32.0406 28.3764C31.9948 28.4327 31.9423 28.4577 31.9292 28.4452C31.8834 28.4014 31.9751 28.2826 32.0537 28.2826C32.0931 28.2826 32.0931 28.3201 32.0406 28.3764ZM32.3683 28.3076C32.3683 28.3264 32.3421 28.3576 32.3028 28.3764C32.27 28.3951 32.2372 28.3826 32.2372 28.3514C32.2372 28.3139 32.27 28.2826 32.3028 28.2826C32.3421 28.2826 32.3683 28.2951 32.3683 28.3076ZM15.3103 28.6077C15.2907 28.6515 15.2776 28.6202 15.2776 28.5327C15.2776 28.4452 15.2907 28.4139 15.3103 28.4514C15.3234 28.4952 15.3234 28.5702 15.3103 28.6077ZM32.1389 28.5327C32.1193 28.5639 32.0668 28.5952 32.0341 28.5952C31.9948 28.5952 31.9882 28.5639 32.0079 28.5327C32.0275 28.4952 32.0799 28.4702 32.1127 28.4702C32.152 28.4702 32.1586 28.4952 32.1389 28.5327ZM15.5069 28.6702C15.4873 28.7202 15.4676 28.7015 15.4676 28.6327C15.461 28.5639 15.4807 28.5264 15.5004 28.5514C15.52 28.5702 15.5266 28.6265 15.5069 28.6702ZM15.3038 28.739C15.3693 28.7202 15.3824 28.739 15.3562 28.8015C15.2907 28.9703 15.1662 28.964 15.1596 28.789C15.153 28.7015 15.1662 28.6577 15.1793 28.7015C15.1924 28.7452 15.2513 28.7577 15.3038 28.739ZM15.4217 28.9953C15.4021 29.0516 15.3562 29.0953 15.3234 29.0953C15.2907 29.0953 15.2972 29.0391 15.3431 28.9703C15.4348 28.8328 15.4807 28.8453 15.4217 28.9953ZM29.2228 28.939C29.1769 28.9953 29.1245 29.0203 29.1114 29.0078C29.0655 28.964 29.1572 28.8453 29.2359 28.8453C29.2752 28.8453 29.2752 28.8828 29.2228 28.939ZM31.6081 28.9453C31.6409 29.0328 31.6343 29.0391 31.5491 28.9703C31.4377 28.8828 31.4246 28.8453 31.5098 28.8453C31.5426 28.8453 31.5885 28.889 31.6081 28.9453ZM29.0524 29.1266C29.072 29.1891 29.0327 29.2328 28.9213 29.2579C28.8296 29.2829 28.7378 29.2829 28.7182 29.2579C28.6919 29.2391 28.7378 29.2203 28.8165 29.2203C28.9148 29.2203 28.9475 29.1891 28.9213 29.1266C28.8951 29.0766 28.9082 29.0328 28.9475 29.0328C28.9803 29.0328 29.0262 29.0766 29.0524 29.1266ZM30.5006 29.8455C30.5203 29.883 30.4941 29.8893 30.4416 29.8705C30.3237 29.8267 30.304 29.783 30.3958 29.783C30.4351 29.783 30.481 29.808 30.5006 29.8455ZM30.2713 30.033C30.2713 30.0643 30.2188 30.0956 30.1599 30.0956C30.0616 30.0956 30.055 30.0831 30.1402 30.033C30.2647 29.958 30.2713 29.958 30.2713 30.033ZM26.8636 30.1581C26.8112 30.1893 26.7194 30.2143 26.667 30.2143C26.6015 30.2143 26.6146 30.1956 26.6998 30.1581C26.8767 30.0831 26.9816 30.0831 26.8636 30.1581ZM27.1913 30.1581C27.1913 30.1893 27.1388 30.2206 27.0799 30.2206C26.9816 30.2206 26.975 30.2081 27.0602 30.1581C27.1847 30.0831 27.1913 30.0831 27.1913 30.1581ZM29.7339 30.3269C29.6684 30.3394 29.6159 30.3769 29.6159 30.4081C29.6159 30.4394 29.5701 30.4519 29.5111 30.4269C29.4259 30.3956 29.4259 30.3831 29.498 30.3394C29.5439 30.3081 29.6422 30.2894 29.7142 30.2894C29.8256 30.2956 29.8256 30.3019 29.7339 30.3269ZM26.1428 30.6707C26.1428 30.702 26.0707 30.7207 25.9855 30.7207C25.9003 30.7207 25.7889 30.7332 25.7365 30.7395C25.6906 30.752 25.6775 30.752 25.7102 30.7332C25.7365 30.7207 25.7299 30.6895 25.6906 30.6644C25.6513 30.6394 25.7365 30.6207 25.8806 30.6269C26.0248 30.6269 26.1428 30.6457 26.1428 30.6707ZM28.5478 30.8832C28.5281 30.902 28.4691 30.9083 28.4233 30.8895C28.3708 30.8707 28.3905 30.852 28.4626 30.852C28.5347 30.8457 28.574 30.8645 28.5478 30.8832ZM28.6002 31.0333C28.5805 31.0645 28.5216 31.0958 28.4822 31.0958C28.4364 31.0958 28.4429 31.0708 28.5019 31.0333C28.6264 30.9583 28.6526 30.9583 28.6002 31.0333ZM24.4193 31.0708C24.3996 31.0895 24.3406 31.0958 24.2948 31.077C24.2423 31.0583 24.262 31.0395 24.3341 31.0395C24.4062 31.0333 24.4455 31.052 24.4193 31.0708ZM24.8321 31.1896C24.8321 31.2521 24.57 31.2521 24.5503 31.1896C24.5241 31.1396 24.57 31.1271 24.6748 31.1458C24.76 31.1583 24.8321 31.1833 24.8321 31.1896ZM24.4258 31.2646C24.3603 31.2771 24.2554 31.2771 24.1965 31.2646C24.1309 31.2458 24.1833 31.2333 24.3079 31.2333C24.4324 31.2333 24.4848 31.2458 24.4258 31.2646ZM27.3485 31.4334C27.283 31.4834 27.2109 31.5084 27.1913 31.4959C27.1585 31.4584 27.3289 31.3459 27.4141 31.3459C27.4534 31.3459 27.4206 31.3834 27.3485 31.4334ZM27.4927 31.5647C27.4206 31.6147 27.3289 31.6584 27.2961 31.6584C27.2568 31.6522 27.2961 31.6147 27.3879 31.5647C27.5976 31.4459 27.65 31.4521 27.4927 31.5647ZM22.3616 31.7022C22.3157 31.7147 22.2371 31.7147 22.1977 31.7022C22.1519 31.6834 22.1846 31.6709 22.2764 31.6709C22.3681 31.6709 22.4009 31.6834 22.3616 31.7022ZM22.6499 31.6959C22.6302 31.7147 22.5713 31.721 22.5254 31.7022C22.473 31.6834 22.4926 31.6647 22.5647 31.6647C22.6368 31.6584 22.6761 31.6772 22.6499 31.6959ZM26.7981 31.8835C26.7981 31.896 26.7391 31.9085 26.6605 31.9085C26.5884 31.9085 26.5425 31.8835 26.5687 31.846C26.6015 31.796 26.7981 31.8272 26.7981 31.8835ZM21.4048 31.946C21.3851 31.9648 21.3262 31.971 21.2803 31.9523C21.2279 31.9335 21.2475 31.9147 21.3196 31.9147C21.3917 31.9085 21.431 31.9273 21.4048 31.946ZM21.4048 32.1336C21.3851 32.1523 21.3262 32.1586 21.2803 32.1398C21.2279 32.121 21.2475 32.1023 21.3196 32.1023C21.3917 32.096 21.431 32.1148 21.4048 32.1336ZM20.9002 32.2211C20.9002 32.2523 20.8871 32.2836 20.874 32.2836C20.8543 32.2836 20.8216 32.2523 20.8019 32.2211C20.7822 32.1836 20.7953 32.1586 20.8281 32.1586C20.8674 32.1586 20.9002 32.1836 20.9002 32.2211ZM25.3564 32.4336C25.3564 32.4461 25.2974 32.4711 25.2253 32.4899C25.1532 32.5086 25.1073 32.4961 25.1336 32.4649C25.1663 32.4086 25.3564 32.3836 25.3564 32.4336ZM19.0456 32.5086C19.026 32.5274 18.967 32.5336 18.9211 32.5149C18.8687 32.4961 18.8884 32.4774 18.9605 32.4774C19.0325 32.4711 19.0719 32.4899 19.0456 32.5086ZM19.3078 32.6337C19.2881 32.6524 19.2291 32.6587 19.1833 32.6399C19.1308 32.6212 19.1505 32.6024 19.2226 32.6024C19.2947 32.5962 19.334 32.6149 19.3078 32.6337ZM23.8491 32.8462C23.7967 32.8775 23.6919 32.9025 23.6198 32.9025C23.5149 32.8962 23.5149 32.89 23.6525 32.8462C23.8819 32.7775 23.9671 32.7775 23.8491 32.8462ZM24.2423 32.8462C24.1899 32.8775 24.1178 32.9087 24.0785 32.9087C24.0457 32.9087 24.0588 32.8775 24.1113 32.8462C24.1637 32.815 24.2423 32.7837 24.2751 32.7837C24.3144 32.7837 24.2948 32.815 24.2423 32.8462ZM18.1937 33.1088C18.1741 33.1588 18.1544 33.14 18.1544 33.0713C18.1479 33.0025 18.1675 32.965 18.1872 32.99C18.2068 33.0088 18.2134 33.065 18.1937 33.1088ZM21.6014 33.3839C21.5817 33.4026 21.5228 33.4089 21.4769 33.3901C21.4245 33.3714 21.4441 33.3526 21.5162 33.3526C21.5883 33.3463 21.6276 33.3651 21.6014 33.3839ZM21.1951 33.5339C21.123 33.5651 21.0182 33.5902 20.9657 33.5902C20.8805 33.5964 20.8805 33.5902 20.9657 33.5339C21.0182 33.5026 21.123 33.4776 21.1951 33.4776H21.3262L21.1951 33.5339ZM27.2765 33.7652C27.2306 33.7777 27.1519 33.7777 27.1126 33.7652C27.0668 33.7464 27.0995 33.7339 27.1913 33.7339C27.283 33.7339 27.3158 33.7464 27.2765 33.7652ZM20.0155 33.909C20.0352 33.9465 20.009 33.9527 19.9565 33.934C19.8386 33.8902 19.8189 33.8465 19.9107 33.8465C19.95 33.8465 19.9959 33.8715 20.0155 33.909ZM27.7876 34.0403C27.7548 34.1215 27.7221 34.159 27.7221 34.1153C27.7155 34.0215 27.7876 33.834 27.8204 33.8652C27.84 33.8777 27.8204 33.959 27.7876 34.0403ZM26.1296 34.0778C26.1428 34.1215 26.1034 34.159 26.0445 34.159C25.9855 34.159 25.9527 34.134 25.9789 34.1028C25.9986 34.0715 25.9593 34.0278 25.9003 34.009C25.8282 33.9903 25.8413 33.984 25.9396 33.9903C26.0314 33.9965 26.11 34.0403 26.1296 34.0778ZM25.7692 34.1403C25.7233 34.1528 25.6316 34.1528 25.5726 34.1403C25.5071 34.1215 25.5464 34.109 25.6513 34.109C25.7627 34.109 25.8085 34.1215 25.7692 34.1403ZM24.2882 34.6967C24.2685 34.7154 24.2096 34.7217 24.1637 34.7029C24.1113 34.6842 24.1309 34.6654 24.203 34.6654C24.2751 34.6592 24.3144 34.6779 24.2882 34.6967ZM22.4271 35.1405C22.3812 35.153 22.3026 35.153 22.2633 35.1405C22.2174 35.1218 22.2502 35.1093 22.3419 35.1093C22.4336 35.1093 22.4664 35.1218 22.4271 35.1405ZM19.6748 35.4969C19.7534 35.5156 19.7927 35.5469 19.7665 35.5719C19.6813 35.6532 19.393 35.4531 19.3995 35.3218C19.3995 35.1905 19.3995 35.1905 19.4716 35.3281C19.5109 35.4031 19.6027 35.4781 19.6748 35.4969ZM24.6355 35.847C24.5831 35.8782 24.4913 35.9032 24.4389 35.9032C24.3734 35.9032 24.3865 35.8845 24.4717 35.847C24.6486 35.7719 24.7535 35.7719 24.6355 35.847ZM24.1833 35.9595C24.1375 35.972 24.0654 35.9532 24.0326 35.922C23.9802 35.872 24.0064 35.8657 24.1178 35.8907C24.203 35.9157 24.2358 35.9407 24.1833 35.9595ZM24.9435 35.8845C24.9239 35.9032 24.8649 35.9095 24.819 35.8907C24.7666 35.872 24.7862 35.8532 24.8583 35.8532C24.9304 35.847 24.9697 35.8657 24.9435 35.8845ZM23.9999 36.0783C23.954 36.0908 23.8753 36.0908 23.836 36.0783C23.7902 36.0595 23.8229 36.047 23.9147 36.047C24.0064 36.047 24.0392 36.0595 23.9999 36.0783ZM22.8465 36.3221C22.8268 36.3408 22.7679 36.3471 22.722 36.3283C22.6696 36.3096 22.6892 36.2908 22.7613 36.2908C22.8334 36.2846 22.8727 36.3033 22.8465 36.3221ZM22.5582 36.3908C22.5123 36.4033 22.4336 36.4033 22.3943 36.3908C22.3485 36.3721 22.3812 36.3596 22.473 36.3596C22.5647 36.3596 22.5975 36.3721 22.5582 36.3908ZM22.912 36.4471C22.8924 36.4659 22.8334 36.4721 22.7875 36.4533C22.7351 36.4346 22.7548 36.4158 22.8268 36.4158C22.8989 36.4096 22.9382 36.4283 22.912 36.4471ZM21.182 36.891C21.1361 36.9035 21.0575 36.9035 21.0182 36.891C20.9723 36.8722 21.005 36.8597 21.0968 36.8597C21.1885 36.8597 21.2213 36.8722 21.182 36.891ZM20.6184 36.9472C20.5988 36.966 20.5398 36.9722 20.4939 36.9535C20.4415 36.9347 20.4611 36.916 20.5332 36.916C20.6053 36.9097 20.6446 36.9285 20.6184 36.9472ZM26.5818 37.1098C26.5622 37.1598 26.5425 37.141 26.5425 37.0722C26.5359 37.0035 26.5556 36.966 26.5753 36.991C26.5949 37.0097 26.6015 37.066 26.5818 37.1098ZM18.233 37.1285C18.2593 37.1785 18.2462 37.2348 18.2134 37.2535C18.1741 37.2785 18.1479 37.2348 18.1479 37.166C18.1479 37.0097 18.1872 36.9972 18.233 37.1285ZM20.1138 37.0597C20.1138 37.0785 20.0876 37.1098 20.0483 37.1285C20.0155 37.1473 19.9828 37.1348 19.9828 37.1035C19.9828 37.066 20.0155 37.0347 20.0483 37.0347C20.0876 37.0347 20.1138 37.0472 20.1138 37.0597ZM26.4049 37.191C26.4049 37.241 26.3918 37.2848 26.3787 37.2848C26.3656 37.2848 26.3393 37.241 26.3131 37.191C26.2935 37.141 26.3066 37.0973 26.3393 37.0973C26.3787 37.0973 26.4049 37.141 26.4049 37.191ZM19.0194 37.3911C18.9736 37.4036 18.8949 37.4036 18.8556 37.3911C18.8097 37.3723 18.8425 37.3598 18.9342 37.3598C19.026 37.3598 19.0588 37.3723 19.0194 37.3911ZM25.0942 37.4723C25.0942 37.5036 25.0615 37.5349 25.0222 37.5349C24.9894 37.5349 24.9763 37.5036 24.9959 37.4723C25.0156 37.4348 25.0484 37.4098 25.068 37.4098C25.0811 37.4098 25.0942 37.4348 25.0942 37.4723ZM24.8518 37.6411C24.8059 37.6536 24.7273 37.6536 24.6879 37.6411C24.6421 37.6224 24.6748 37.6099 24.7666 37.6099C24.8583 37.6099 24.8911 37.6224 24.8518 37.6411ZM27.9776 37.8412C27.9776 37.8724 27.9318 37.9162 27.8728 37.935C27.7811 37.9662 27.7745 37.96 27.8466 37.8787C27.9383 37.7724 27.9776 37.7599 27.9776 37.8412ZM22.8399 38.0287C22.8203 38.06 22.7023 38.1163 22.5909 38.1538L22.3747 38.2225L22.5385 38.0975C22.7023 37.9725 22.9055 37.9287 22.8399 38.0287ZM27.8073 38.1288C27.7811 38.1788 27.7548 38.2225 27.7417 38.2225C27.7286 38.2225 27.7155 38.1788 27.7155 38.1288C27.7155 38.0787 27.7417 38.035 27.7811 38.035C27.8138 38.035 27.8269 38.0787 27.8073 38.1288ZM20.9657 38.5351C20.9657 38.5664 20.9526 38.5976 20.9395 38.5976C20.9199 38.5976 20.8871 38.5664 20.8674 38.5351C20.8478 38.4976 20.8609 38.4726 20.8936 38.4726C20.933 38.4726 20.9657 38.4976 20.9657 38.5351ZM23.1742 39.4478C23.1545 39.4666 23.0955 39.4728 23.0496 39.4541C22.9972 39.4353 23.0169 39.4166 23.089 39.4166C23.1611 39.4103 23.2004 39.4291 23.1742 39.4478ZM23.6067 39.4541C23.5608 39.4666 23.4822 39.4666 23.4428 39.4541C23.397 39.4353 23.4297 39.4228 23.5215 39.4228C23.6132 39.4228 23.646 39.4353 23.6067 39.4541ZM22.0142 39.8417C22.0142 39.8667 21.9422 39.8792 21.8504 39.8604C21.7587 39.8479 21.6866 39.8229 21.6866 39.8104C21.6866 39.7979 21.7587 39.7854 21.8504 39.7854C21.9422 39.7854 22.0142 39.8104 22.0142 39.8417ZM22.296 39.8292C22.2502 39.8417 22.1715 39.8417 22.1322 39.8292C22.0863 39.8104 22.1191 39.7979 22.2108 39.7979C22.3026 39.7979 22.3353 39.8104 22.296 39.8292Z" fill="#666666"/>
<path d="M25.6204 17.9422C24.8466 18.1126 24.1383 18.5584 23.5848 19.2139C23.2217 19.64 22.7991 20.4726 22.7753 20.8069C22.7694 20.9052 22.7396 21.0101 22.7099 21.0298C22.6206 21.1019 22.5908 22.4327 22.6742 22.8719C22.7991 23.5471 23.1979 24.4059 23.6027 24.8647C24.4062 25.7825 25.2454 26.1627 26.4239 26.1562C27.5607 26.1496 28.2987 25.8284 29.0487 25.0155C29.3106 24.7336 29.5189 24.478 29.5189 24.4517C29.5189 24.3927 29.1975 24.1043 29.132 24.1043C29.1142 24.1043 29.1142 24.1371 29.138 24.183C29.1618 24.2289 29.1558 24.2354 29.1082 24.2092C29.0725 24.183 29.0546 24.1371 29.0665 24.1109C29.0963 24.065 28.6082 23.6454 28.2154 23.3767C28.0785 23.2783 28.0607 23.2914 27.8285 23.5668C27.5786 23.8683 27.0964 24.1699 26.8584 24.1699C26.781 24.1699 26.7215 24.1961 26.7215 24.2223C26.7215 24.3272 25.918 24.1699 25.6204 24.0125C25.4001 23.888 25.3168 23.8683 25.2752 23.9273C25.2454 23.9732 25.2394 23.947 25.2632 23.8618C25.2871 23.7569 25.2632 23.6979 25.1799 23.652C25.0073 23.5471 24.6978 22.8063 24.6442 22.3737C24.555 21.646 24.7752 20.8135 25.168 20.3939C25.2752 20.2825 25.5013 20.1055 25.668 20.0006C26.3048 19.6138 27.2393 19.8105 27.7988 20.4464L28.0309 20.7086L28.4832 20.3284C28.7332 20.112 28.9951 19.8957 29.0665 19.8433C29.132 19.7908 29.263 19.6859 29.3522 19.6073L29.5129 19.463L29.0963 19.0042C28.638 18.4928 28.0607 18.1388 27.4238 17.975C27.025 17.8701 26.0251 17.857 25.6204 17.9422ZM27.2869 18.1323C27.2691 18.1651 27.3048 18.2109 27.3583 18.2241C27.4298 18.2437 27.4119 18.2568 27.3107 18.2634C27.2095 18.2699 27.156 18.2372 27.156 18.1716C27.156 18.1192 27.1976 18.0733 27.2393 18.0733C27.2869 18.0733 27.3107 18.0995 27.2869 18.1323ZM25.3109 18.2503C25.2692 18.2634 25.1978 18.2634 25.1621 18.2503C25.1204 18.2306 25.1502 18.2175 25.2335 18.2175C25.3168 18.2175 25.3466 18.2306 25.3109 18.2503ZM25.6204 18.2699C25.6025 18.3027 25.6144 18.3355 25.6561 18.3355C25.6977 18.3355 25.7156 18.3552 25.6918 18.3748C25.6739 18.3945 25.6025 18.3945 25.537 18.3683C25.4001 18.3224 25.424 18.2044 25.5668 18.2044C25.6144 18.2044 25.6382 18.2306 25.6204 18.2699ZM24.7752 18.6043C24.7216 18.6633 24.7038 18.6502 24.7157 18.5453C24.7216 18.4535 24.7454 18.4273 24.7811 18.4666C24.8228 18.5125 24.8169 18.5584 24.7752 18.6043ZM24.5788 18.7288C24.5788 18.7616 24.5669 18.7944 24.555 18.7944C24.5371 18.7944 24.5074 18.7616 24.4895 18.7288C24.4716 18.6895 24.4835 18.6633 24.5133 18.6633C24.549 18.6633 24.5788 18.6895 24.5788 18.7288ZM28.2154 18.8796C28.1559 18.9386 28.1499 18.9321 28.1857 18.8403C28.2035 18.7747 28.2392 18.7419 28.2571 18.7616C28.2749 18.7813 28.2571 18.8337 28.2154 18.8796ZM28.4892 18.8337C28.4713 18.8534 28.4178 18.8599 28.3761 18.8403C28.3285 18.8206 28.3464 18.8009 28.4118 18.8009C28.4773 18.7944 28.513 18.8141 28.4892 18.8337ZM23.7455 19.3188C23.7455 19.3516 23.7336 19.3844 23.7217 19.3844C23.7038 19.3844 23.6741 19.3516 23.6562 19.3188C23.6384 19.2795 23.6503 19.2533 23.68 19.2533C23.7157 19.2533 23.7455 19.2795 23.7455 19.3188ZM29.263 19.5286C29.2451 19.5745 29.2332 19.5417 29.2332 19.4499C29.2332 19.3582 29.2451 19.3254 29.263 19.3647C29.2749 19.4106 29.2749 19.4893 29.263 19.5286ZM28.7451 19.4762C28.7451 19.4958 28.7213 19.5286 28.6856 19.5483C28.6559 19.5679 28.6261 19.5548 28.6261 19.522C28.6261 19.4827 28.6559 19.4499 28.6856 19.4499C28.7213 19.4499 28.7451 19.463 28.7451 19.4762ZM26.0251 19.5614C25.9834 19.5745 25.912 19.5745 25.8763 19.5614C25.8346 19.5417 25.8644 19.5286 25.9477 19.5286C26.031 19.5286 26.0608 19.5417 26.0251 19.5614ZM27.0786 19.7122C26.9596 19.7974 26.8822 19.7974 26.9298 19.7122C26.9476 19.6728 27.0131 19.6466 27.0667 19.6466C27.156 19.6466 27.156 19.6597 27.0786 19.7122ZM27.8523 20.0006C27.8523 20.0137 27.7988 20.0399 27.7333 20.0596C27.6678 20.0793 27.6143 20.0661 27.6143 20.0334C27.6143 20.0006 27.6678 19.9744 27.7333 19.9744C27.7988 19.9744 27.8523 19.9875 27.8523 20.0006ZM28.5785 20.1055C28.3344 20.2694 28.2749 20.2759 28.4237 20.1186C28.4832 20.053 28.5844 19.994 28.6499 19.9875C28.7332 19.9809 28.7154 20.0137 28.5785 20.1055ZM27.9416 20.171C27.9238 20.2038 27.8761 20.2366 27.8464 20.2366C27.8107 20.2366 27.8047 20.2038 27.8226 20.171C27.8404 20.1317 27.8881 20.1055 27.9178 20.1055C27.9535 20.1055 27.9595 20.1317 27.9416 20.171ZM28.0488 20.3349C27.9892 20.3808 27.9297 20.4136 27.9238 20.4005C27.8821 20.3546 28.0607 20.1841 28.1083 20.2169C28.138 20.2366 28.1083 20.289 28.0488 20.3349ZM28.3285 20.3284C28.3285 20.3415 28.2868 20.3874 28.2392 20.4333C28.1618 20.5054 28.1559 20.4988 28.1857 20.407C28.2154 20.3153 28.3285 20.2563 28.3285 20.3284ZM24.4419 21.1675C24.424 21.2199 24.4062 21.2002 24.4062 21.1281C24.4002 21.056 24.4181 21.0167 24.4359 21.0429C24.4538 21.0626 24.4597 21.1216 24.4419 21.1675ZM24.3228 21.233C24.305 21.2855 24.2871 21.2658 24.2871 21.1937C24.2812 21.1216 24.299 21.0822 24.3169 21.1085C24.3347 21.1281 24.3407 21.1871 24.3228 21.233ZM24.3824 21.7575C24.3645 21.8033 24.3526 21.7706 24.3526 21.6788C24.3526 21.587 24.3645 21.5542 24.3824 21.5936C24.3943 21.6395 24.3943 21.7181 24.3824 21.7575ZM24.5014 22.1508C24.4895 22.236 24.4776 22.1836 24.4776 22.0393C24.4716 21.8951 24.4835 21.8296 24.5014 21.8886C24.5133 21.9541 24.5133 22.0721 24.5014 22.1508ZM24.4419 22.4786C24.424 22.531 24.4062 22.5113 24.4062 22.4392C24.4002 22.3671 24.4181 22.3278 24.4359 22.354C24.4538 22.3737 24.4597 22.4327 24.4419 22.4786ZM24.3883 22.7998C24.3705 22.9309 24.3586 22.9243 24.3347 22.7408C24.3169 22.6097 24.3228 22.5507 24.3586 22.59C24.3883 22.6228 24.4002 22.7146 24.3883 22.7998ZM22.8349 22.9374C22.817 22.9899 22.7991 22.9702 22.7991 22.8981C22.7932 22.826 22.8111 22.7867 22.8289 22.8129C22.8468 22.8325 22.8527 22.8915 22.8349 22.9374ZM22.9539 23.003C22.936 23.0554 22.9182 23.0358 22.9182 22.9637C22.9122 22.8915 22.9301 22.8522 22.9479 22.8784C22.9658 22.8981 22.9718 22.9571 22.9539 23.003ZM23.0908 23.6651C23.0908 23.7831 23.0789 23.7896 23.0313 23.711C22.9539 23.5799 22.9539 23.4291 23.0313 23.4815C23.067 23.5012 23.0908 23.5864 23.0908 23.6651ZM28.3285 23.6061C28.3285 23.6126 28.2511 23.6258 28.1559 23.6258C28.0249 23.6258 28.0011 23.6061 28.0547 23.5405C28.0964 23.4881 28.1559 23.4815 28.2273 23.5209C28.2809 23.5602 28.3285 23.593 28.3285 23.6061ZM25.2335 24.1043C25.2335 24.1371 25.2097 24.1699 25.174 24.1699C25.1442 24.1699 25.1145 24.1371 25.1145 24.1043C25.1145 24.065 25.1442 24.0388 25.174 24.0388C25.2097 24.0388 25.2335 24.065 25.2335 24.1043ZM27.6738 24.1043C27.6738 24.1371 27.644 24.1699 27.6083 24.1699C27.5786 24.1699 27.5666 24.1371 27.5845 24.1043C27.6024 24.065 27.6321 24.0388 27.65 24.0388C27.6619 24.0388 27.6738 24.065 27.6738 24.1043ZM29.2927 24.5763C29.251 24.6222 29.2213 24.6287 29.2213 24.5894C29.2213 24.4976 29.2927 24.419 29.3344 24.4649C29.3463 24.4845 29.3284 24.537 29.2927 24.5763ZM23.6086 24.7074C23.5908 24.7599 23.5729 24.7402 23.5729 24.6681C23.5669 24.596 23.5848 24.5566 23.6027 24.5829C23.6205 24.6025 23.6265 24.6615 23.6086 24.7074ZM29.1915 24.6943C29.2094 24.7271 29.1975 24.7599 29.1677 24.7599C29.132 24.7599 29.1022 24.7271 29.1022 24.6943C29.1022 24.655 29.1142 24.6287 29.1261 24.6287C29.1439 24.6287 29.1737 24.655 29.1915 24.6943ZM23.7634 24.7926C23.7455 24.8516 23.7157 24.8844 23.7038 24.8647C23.686 24.8451 23.6919 24.8057 23.7157 24.7664C23.7693 24.6615 23.805 24.6812 23.7634 24.7926ZM24.1621 24.8254C24.1621 24.8582 24.1383 24.891 24.1026 24.891C24.0729 24.891 24.0431 24.8582 24.0431 24.8254C24.0431 24.7861 24.0729 24.7599 24.1026 24.7599C24.1383 24.7599 24.1621 24.7861 24.1621 24.8254ZM24.055 25.0155C24.1145 25.0745 24.1621 25.1401 24.1621 25.1728C24.1621 25.245 23.811 24.9434 23.811 24.8713C23.805 24.8123 23.8943 24.8647 24.055 25.0155ZM28.6499 25.2974C28.632 25.3236 28.5844 25.3302 28.5368 25.304C28.4118 25.2581 28.4237 25.2253 28.5606 25.2384C28.6261 25.2384 28.6678 25.2712 28.6499 25.2974ZM24.5193 25.4482C24.5609 25.5006 24.5669 25.5465 24.5312 25.5465C24.5014 25.5465 24.4419 25.5006 24.4002 25.4482C24.3586 25.3957 24.3526 25.3498 24.3883 25.3498C24.4181 25.3498 24.4776 25.3957 24.5193 25.4482ZM28.4475 25.4416C28.4475 25.4547 28.4059 25.4875 28.3523 25.5072C28.3047 25.5268 28.2809 25.5203 28.2987 25.481C28.3344 25.4154 28.4475 25.3892 28.4475 25.4416ZM24.9776 25.6514C24.9597 25.6711 24.9061 25.6776 24.8645 25.658C24.8169 25.6383 24.8347 25.6186 24.9002 25.6186C24.9657 25.6121 25.0014 25.6317 24.9776 25.6514ZM27.3464 25.8087C27.2333 25.8612 27.2393 25.8677 27.3702 25.8677C27.5488 25.8743 27.519 25.9071 27.2869 25.9661C27.156 25.9988 27.1322 25.9923 27.1976 25.9398C27.275 25.8808 27.275 25.8743 27.1976 25.8743C27.1203 25.8743 27.1203 25.8677 27.1976 25.8087C27.2452 25.776 27.3286 25.7497 27.3762 25.7497C27.4357 25.7497 27.4238 25.7694 27.3464 25.8087ZM27.644 25.8087C27.6619 25.8481 27.6381 25.8546 27.5905 25.8349C27.4833 25.7891 27.4655 25.7432 27.5488 25.7432C27.5845 25.7432 27.6262 25.7694 27.644 25.8087ZM25.3228 25.9267C25.3049 25.9464 25.2573 25.9267 25.2156 25.8808C25.1621 25.8153 25.168 25.8087 25.2513 25.8481C25.3109 25.8677 25.3406 25.9071 25.3228 25.9267ZM25.7989 25.8743C25.8763 25.9136 25.8882 25.9333 25.8287 25.9333C25.7811 25.9333 25.6977 25.9071 25.6501 25.8743C25.543 25.7956 25.6382 25.7956 25.7989 25.8743ZM26.3108 25.9267C26.2691 25.9398 26.2037 25.9202 26.1739 25.8874C26.1263 25.8349 26.1501 25.8284 26.2513 25.8546C26.3286 25.8808 26.3584 25.9071 26.3108 25.9267ZM26.1679 26.0447C26.1501 26.0644 26.0965 26.0709 26.0549 26.0513C26.0072 26.0316 26.0251 26.0119 26.0906 26.0119C26.156 26.0054 26.1918 26.0251 26.1679 26.0447ZM26.5013 26.0513C26.4596 26.0644 26.3763 26.0644 26.3227 26.0513C26.2632 26.0316 26.2989 26.0185 26.3941 26.0185C26.4953 26.0185 26.537 26.0316 26.5013 26.0513Z" fill="#666666"/>
<path d="M16.4416 22.3376L16.4594 26.4216L17.4594 26.4413L18.4533 26.4609V25.3727V24.278L18.6795 24.0158C18.7986 23.8715 18.9593 23.6814 19.0307 23.6028C19.1021 23.5175 19.1438 23.4323 19.1259 23.4126C19.1021 23.393 19.1378 23.3733 19.2033 23.3733C19.2747 23.3733 19.364 23.4651 19.4295 23.6028C19.4949 23.7273 19.5664 23.8322 19.5961 23.8322C19.6199 23.8322 19.6437 23.865 19.6437 23.8978C19.6437 24.0026 20.0068 24.5205 20.0663 24.5074C20.0901 24.4943 20.102 24.5271 20.0901 24.573C20.0723 24.6123 20.1258 24.7369 20.2032 24.8483L20.352 25.045L20.4115 24.8811C20.4413 24.7893 20.4711 24.7565 20.4711 24.8024C20.477 24.8483 20.4532 24.9401 20.4234 25.0056C20.3818 25.0908 20.4592 25.2613 20.7687 25.7661L21.1674 26.4216L22.3697 26.4413C23.5184 26.4609 23.572 26.4544 23.5125 26.3429C23.4708 26.2774 23.3101 26.1397 23.1494 26.0283C22.9887 25.9234 22.7745 25.7529 22.6733 25.6546C22.4709 25.4514 22.4114 25.4252 22.465 25.5694C22.4828 25.6218 22.465 25.6677 22.4352 25.6677C22.3995 25.6677 22.3816 25.6087 22.3995 25.5366C22.4173 25.4645 22.3995 25.3662 22.3578 25.3203C22.215 25.163 21.8102 24.514 21.7329 24.3239C21.6138 24.0354 21.4412 23.4389 21.3996 23.1701C21.3758 23.039 21.3043 22.8358 21.2389 22.7178C21.1436 22.5408 21.1079 22.5146 21.0603 22.5932C21.0127 22.6653 21.0127 22.6588 21.0365 22.5604C21.0603 22.4818 21.0008 22.3179 20.8579 22.0884L20.6377 21.741L20.9889 21.2952C21.1853 21.0527 21.4293 20.7511 21.5365 20.62C21.6495 20.4955 21.7805 20.2988 21.8281 20.1939C21.9888 19.8596 22.4352 19.2565 22.6911 19.0336C23.1435 18.6272 23.3935 18.3781 23.3935 18.3191C23.3935 18.2863 22.8756 18.2601 22.2388 18.2601H21.0841L20.8698 18.5551C20.7508 18.7124 20.6199 18.8828 20.5782 18.9287C20.5365 18.9746 20.3044 19.2762 20.0604 19.6039C19.8163 19.9251 19.5426 20.2791 19.4473 20.3906C19.358 20.4955 19.2985 20.6266 19.3164 20.6725C19.3342 20.7184 19.3164 20.738 19.2866 20.7184C19.2211 20.6725 19.1557 20.738 18.9236 21.0789C18.6676 21.4526 18.5486 21.5837 18.4831 21.5575C18.4474 21.5443 18.4295 20.9478 18.4414 19.8989L18.4593 18.2601H17.4415H16.4297L16.4416 22.3376ZM17.0725 18.5682C17.013 18.5813 16.9058 18.5813 16.8344 18.5682C16.757 18.5551 16.8047 18.5419 16.9356 18.5419C17.0665 18.5354 17.1261 18.5485 17.0725 18.5682ZM21.8043 18.5682C21.7269 18.5813 21.6079 18.5813 21.5365 18.5682C21.4591 18.5551 21.5186 18.5419 21.6674 18.5419C21.8162 18.5419 21.8757 18.5551 21.8043 18.5682ZM20.8817 18.8763C20.8103 18.9222 20.7329 18.9484 20.721 18.9353C20.6734 18.8959 20.9234 18.7321 20.971 18.7648C21.0008 18.7845 20.9591 18.8369 20.8817 18.8763ZM20.4353 19.3417C20.4175 19.4007 20.3877 19.4335 20.3758 19.4138C20.358 19.3942 20.3639 19.3548 20.3877 19.3155C20.4413 19.2106 20.477 19.2303 20.4353 19.3417ZM21.5484 19.3089C21.5484 19.3417 21.5245 19.3745 21.4888 19.3745C21.4591 19.3745 21.4293 19.3417 21.4293 19.3089C21.4293 19.2696 21.4591 19.2434 21.4888 19.2434C21.5245 19.2434 21.5484 19.2696 21.5484 19.3089ZM22.1019 19.4007C22.1197 19.44 22.084 19.4794 22.0305 19.4794C21.9769 19.4794 21.9293 19.4269 21.9293 19.3679C21.9293 19.2499 22.0602 19.2696 22.1019 19.4007ZM21.7567 19.6367C21.7745 19.6695 21.7745 19.735 21.7507 19.7744C21.715 19.8465 21.6138 19.735 21.6079 19.617C21.6079 19.5515 21.715 19.558 21.7567 19.6367ZM19.9175 20.0628C19.864 20.1218 19.8223 20.148 19.8223 20.1153C19.8223 20.0366 19.9532 19.8924 19.9889 19.9317C20.0009 19.9448 19.9711 20.0038 19.9175 20.0628ZM21.6614 20.3316C21.596 20.4234 21.5841 20.4234 21.5305 20.325C21.5007 20.266 21.4948 20.2005 21.5126 20.1808C21.5305 20.1546 21.5484 20.1743 21.5484 20.2136C21.5484 20.3381 21.6674 20.3054 21.6733 20.1743C21.6733 20.1021 21.6853 20.0956 21.7091 20.148C21.7269 20.1939 21.7031 20.2791 21.6614 20.3316ZM18.1974 21.2231C18.1855 21.3083 18.1736 21.2428 18.1736 21.0789C18.1736 20.915 18.1855 20.8495 18.1974 20.9281C18.2093 21.0134 18.2093 21.1445 18.1974 21.2231ZM21.0365 20.9871C21.0543 21.0396 21.0484 21.0658 21.0127 21.0461C20.977 21.0265 20.9532 20.9806 20.9532 20.9412C20.9532 20.8495 20.9948 20.8691 21.0365 20.9871ZM20.7448 21.4657C20.727 21.505 20.6794 21.5378 20.6496 21.5378C20.6199 21.5378 20.6258 21.4985 20.6675 21.446C20.7508 21.3411 20.8103 21.3608 20.7448 21.4657ZM18.2748 21.6689C18.2748 21.7017 18.2629 21.7345 18.251 21.7345C18.2331 21.7345 18.2034 21.7017 18.1855 21.6689C18.1677 21.6296 18.1796 21.6033 18.2093 21.6033C18.245 21.6033 18.2748 21.6296 18.2748 21.6689ZM20.5782 21.8131C20.5603 21.8656 20.5425 21.8459 20.5425 21.7738C20.5365 21.7017 20.5544 21.6623 20.5722 21.6886C20.5901 21.7082 20.596 21.7672 20.5782 21.8131ZM20.7448 22.1278C20.7627 22.1606 20.7508 22.1933 20.721 22.1933C20.6853 22.1933 20.6556 22.1606 20.6556 22.1278C20.6556 22.0884 20.6675 22.0622 20.6794 22.0622C20.6972 22.0622 20.727 22.0884 20.7448 22.1278ZM19.8044 23.4782C19.7866 23.4979 19.733 23.5044 19.6914 23.4848C19.6437 23.4651 19.6616 23.4454 19.7271 23.4454C19.7925 23.4389 19.8282 23.4585 19.8044 23.4782ZM18.7807 23.6355C18.7986 23.6749 18.7748 23.6814 18.7271 23.6618C18.62 23.6159 18.6021 23.57 18.6855 23.57C18.7212 23.57 18.7628 23.5962 18.7807 23.6355ZM19.9413 23.6355C19.9413 23.6683 19.9294 23.7011 19.9175 23.7011C19.8997 23.7011 19.8699 23.6683 19.8521 23.6355C19.8342 23.5962 19.8461 23.57 19.8759 23.57C19.9116 23.57 19.9413 23.5962 19.9413 23.6355ZM18.6081 23.9502C18.5069 24.0551 18.501 24.0551 18.5783 23.9174C18.62 23.8388 18.6676 23.7863 18.6855 23.806C18.7033 23.8191 18.6676 23.8846 18.6081 23.9502ZM21.6912 24.5205C21.7091 24.573 21.6972 24.6189 21.6674 24.6189C21.6317 24.6189 21.6079 24.573 21.6079 24.5205C21.6079 24.4681 21.6198 24.4222 21.6317 24.4222C21.6436 24.4222 21.6674 24.4681 21.6912 24.5205ZM20.2984 24.5861C20.2568 24.6451 20.2092 24.6713 20.1973 24.6582C20.1556 24.6123 20.2389 24.4877 20.3104 24.4877C20.3461 24.4877 20.3461 24.5271 20.2984 24.5861ZM22.09 25.1892C22.1674 25.2941 22.1614 25.3006 22.0721 25.2154C21.9709 25.1302 21.9412 25.0777 21.9888 25.0777C22.0007 25.0777 22.0483 25.1302 22.09 25.1892ZM20.9055 25.6939C20.8877 25.7267 20.8401 25.7005 20.7925 25.6349C20.6794 25.458 20.6972 25.3858 20.8222 25.517C20.8877 25.5825 20.9234 25.6612 20.9055 25.6939ZM18.1974 25.8447C18.1796 25.9103 18.1677 25.8709 18.1677 25.7661C18.1677 25.6546 18.1796 25.6087 18.1974 25.6481C18.2093 25.6939 18.2093 25.7857 18.1974 25.8447ZM18.0367 25.7661C18.0367 25.8185 18.0129 25.8644 17.9831 25.8644C17.9058 25.8644 17.8522 25.7595 17.8998 25.7071C17.9653 25.6349 18.0367 25.6677 18.0367 25.7661ZM17.2332 26.2053L17.7689 26.2184L17.3225 26.2446C16.8047 26.2708 16.4714 26.2184 16.5249 26.1201C16.5487 26.0742 16.5844 26.0742 16.6261 26.1201C16.6618 26.1594 16.9356 26.1987 17.2332 26.2053ZM21.1912 26.1266C21.1912 26.1594 21.1793 26.1922 21.1674 26.1922C21.1496 26.1922 21.1198 26.1594 21.102 26.1266C21.0841 26.0873 21.096 26.0611 21.1258 26.0611C21.1615 26.0611 21.1912 26.0873 21.1912 26.1266ZM18.0189 26.2315C18.001 26.2512 17.9474 26.2577 17.9058 26.2381C17.8582 26.2184 17.876 26.1987 17.9415 26.1987C18.007 26.1922 18.0427 26.2118 18.0189 26.2315ZM18.376 26.2315C18.3581 26.2512 18.3045 26.2577 18.2629 26.2381C18.2153 26.2184 18.2331 26.1987 18.2986 26.1987C18.3641 26.1922 18.3998 26.2118 18.376 26.2315ZM22.7566 26.2381C22.6792 26.2512 22.5602 26.2512 22.4888 26.2381C22.4114 26.2249 22.4709 26.2118 22.6197 26.2118C22.7685 26.2118 22.828 26.2249 22.7566 26.2381ZM23.1375 26.2315C23.1197 26.2512 23.0661 26.2577 23.0244 26.2381C22.9768 26.2184 22.9947 26.1987 23.0602 26.1987C23.1256 26.1922 23.1613 26.2118 23.1375 26.2315Z" fill="#666666"/>
<path d="M5.60902 20.7333C5.05224 20.7936 4.95252 20.8674 4.8154 21.3167C4.70737 21.6855 4.70737 22.0276 4.8154 22.3964C4.98576 22.9597 5.23506 23.067 6.50235 23.1207C7.52034 23.1676 8.75024 23.0737 9.09927 22.9195C9.63527 22.6915 9.83471 21.7459 9.47738 21.1222C9.24054 20.6997 9.26547 20.7064 7.60345 20.6997C6.76828 20.693 5.87078 20.7064 5.60902 20.7333ZM5.19351 20.9412C5.19351 20.9747 5.16027 21.0082 5.12287 21.0082C5.06055 21.0082 5.05639 20.9948 5.11041 20.9412C5.18935 20.8607 5.19351 20.8607 5.19351 20.9412ZM9.40259 21.1692C9.41921 21.2362 9.40674 21.2564 9.36935 21.2362C9.3278 21.2094 9.31533 21.2362 9.3278 21.3368C9.33611 21.4106 9.3278 21.4911 9.30287 21.5112C9.28209 21.538 9.26547 21.4777 9.26547 21.3838C9.26547 21.2429 9.24469 21.2094 9.15328 21.2027C9.06187 21.1893 9.07434 21.1826 9.20314 21.1423C9.29456 21.1155 9.3735 21.0887 9.3735 21.082C9.37766 21.082 9.39012 21.1222 9.40259 21.1692ZM9.41921 22.4836C9.43583 22.5708 9.43167 22.5708 9.39428 22.4836C9.35273 22.3964 9.34442 22.3964 9.30702 22.4836C9.27378 22.5708 9.26547 22.5641 9.26547 22.4635C9.26547 22.3159 9.39428 22.3361 9.41921 22.4836ZM5.03977 22.4635C5.01069 22.4769 4.96083 22.4769 4.9359 22.4635C4.90681 22.4433 4.92759 22.4299 4.98576 22.4299C5.04393 22.4299 5.0647 22.4433 5.03977 22.4635ZM5.26415 22.7317C5.26415 22.839 5.25584 22.8793 5.24753 22.8323C5.23506 22.7921 5.20182 22.7518 5.16858 22.7518C5.09794 22.7518 5.08963 22.6378 5.16442 22.5976C5.25584 22.5372 5.2683 22.5506 5.26415 22.7317ZM6.49404 23C6.46496 23.0134 6.4151 23.0134 6.39017 23C6.36108 22.9798 6.38186 22.9664 6.44003 22.9664C6.4982 22.9664 6.51897 22.9798 6.49404 23Z" fill="#666666"/>
<path d="M37.811 20.7408C37.2111 20.7888 37.1823 20.7956 37.0426 20.9805C36.9645 21.0901 36.8576 21.316 36.8042 21.4872C36.722 21.7611 36.7179 21.8227 36.7631 22.1035C36.8248 22.487 36.9727 22.7677 37.2193 22.9594C37.396 23.0895 37.4864 23.1032 38.9329 23.1238C40.6794 23.158 41.0904 23.1032 41.341 22.8156C41.5177 22.6102 41.6575 22.2131 41.6575 21.9186C41.6575 21.5351 41.4684 21.001 41.2712 20.823C41.1602 20.7271 40.963 20.7134 39.7877 20.6997C39.0439 20.6929 38.1521 20.7066 37.811 20.7408ZM41.1027 20.9463C41.1191 20.9873 41.0739 21.0147 41.0041 21.0147C40.9342 21.0147 40.8767 20.9805 40.8767 20.9463C40.8767 20.9052 40.9219 20.8778 40.9753 20.8778C41.0328 20.8778 41.0904 20.9052 41.1027 20.9463ZM36.8905 22.0624C36.8905 22.0966 36.8741 22.0966 36.8494 22.0761C36.8289 22.0556 36.8083 21.9802 36.8083 21.9186C36.8083 21.8159 36.8165 21.8159 36.8494 21.9049C36.87 21.9597 36.8905 22.035 36.8905 22.0624ZM37.2398 22.6444C37.2275 22.665 37.1741 22.6102 37.1248 22.528L37.0343 22.3705L37.1494 22.487C37.2111 22.5554 37.2521 22.6239 37.2398 22.6444ZM41.2547 22.6444C41.2712 22.7266 41.2506 22.7677 41.2013 22.7746C41.1109 22.7882 41.1027 22.7198 41.1725 22.6034C41.2342 22.5006 41.2342 22.5006 41.2547 22.6444Z" fill="#666666"/>
</g>
<defs>
<filter id="filter0_d_4241_2268" x="-0.5" y="0" width="48" height="50" filterUnits="userSpaceOnUse" color-interpolation-filters="sRGB">
<feFlood flood-opacity="0" result="BackgroundImageFix"/>
<feColorMatrix in="SourceAlpha" type="matrix" values="0 0 0 0 0 0 0 0 0 0 0 0 0 0 0 0 0 0 127 0" result="hardAlpha"/>
<feOffset dy="4"/>
<feGaussianBlur stdDeviation="2"/>
<feComposite in2="hardAlpha" operator="out"/>
<feColorMatrix type="matrix" values="0 0 0 0 0 0 0 0 0 0 0 0 0 0 0 0 0 0 0.25 0"/>
<feBlend mode="normal" in2="BackgroundImageFix" result="effect1_dropShadow_4241_2268"/>
<feBlend mode="normal" in="SourceGraphic" in2="effect1_dropShadow_4241_2268" result="shape"/>
</filter>
</defs>
</svg>
