<svg width="24" height="24" viewBox="0 0 24 24" fill="none" xmlns="http://www.w3.org/2000/svg">
<path d="M16.36 14.0078C16.44 13.3478 16.5 12.6878 16.5 12.0078C16.5 11.3278 16.44 10.6678 16.36 10.0078H19.74C19.9 10.6478 20 11.3178 20 12.0078C20 12.6978 19.9 13.3678 19.74 14.0078M14.59 19.5678C15.19 18.4578 15.65 17.2578 15.97 16.0078H18.92C17.9512 17.6761 16.4141 18.9398 14.59 19.5678ZM14.34 14.0078H9.66C9.56 13.3478 9.5 12.6878 9.5 12.0078C9.5 11.3278 9.56 10.6578 9.66 10.0078H14.34C14.43 10.6578 14.5 11.3278 14.5 12.0078C14.5 12.6878 14.43 13.3478 14.34 14.0078ZM12 19.9678C11.17 18.7678 10.5 17.4378 10.09 16.0078H13.91C13.5 17.4378 12.83 18.7678 12 19.9678ZM8 8.00781H5.08C6.03886 6.33503 7.5748 5.0693 9.4 4.44781C8.8 5.55781 8.35 6.75781 8 8.00781ZM5.08 16.0078H8C8.35 17.2578 8.8 18.4578 9.4 19.5678C7.57862 18.9395 6.04485 17.6755 5.08 16.0078ZM4.26 14.0078C4.1 13.3678 4 12.6978 4 12.0078C4 11.3178 4.1 10.6478 4.26 10.0078H7.64C7.56 10.6678 7.5 11.3278 7.5 12.0078C7.5 12.6878 7.56 13.3478 7.64 14.0078M12 4.03781C12.83 5.23781 13.5 6.57781 13.91 8.00781H10.09C10.5 6.57781 11.17 5.23781 12 4.03781ZM18.92 8.00781H15.97C15.657 6.76927 15.1936 5.57371 14.59 4.44781C16.43 5.07781 17.96 6.34781 18.92 8.00781ZM12 2.00781C6.47 2.00781 2 6.50781 2 12.0078C2 14.66 3.05357 17.2035 4.92893 19.0789C5.85752 20.0075 6.95991 20.7441 8.17317 21.2466C9.38642 21.7492 10.6868 22.0078 12 22.0078C14.6522 22.0078 17.1957 20.9542 19.0711 19.0789C20.9464 17.2035 22 14.66 22 12.0078C22 10.6946 21.7413 9.39423 21.2388 8.18098C20.7362 6.96772 19.9997 5.86533 19.0711 4.93674C18.1425 4.00816 17.0401 3.27156 15.8268 2.76902C14.6136 2.26647 13.3132 2.00781 12 2.00781Z" fill="#111111"/>
</svg>
