<svg width="40" height="40" viewBox="0 0 40 40" fill="none" xmlns="http://www.w3.org/2000/svg">
<rect width="40" height="40" rx="5" fill="#ECECEC"/>
<path d="M23.6757 22C23.7524 21.34 23.8099 20.68 23.8099 20C23.8099 19.32 23.7524 18.66 23.6757 18H26.9149C27.0682 18.64 27.1641 19.31 27.1641 20C27.1641 20.69 27.0682 21.36 26.9149 22M21.9795 27.56C22.5545 26.45 22.9953 25.25 23.302 24H26.1291C25.2006 25.6683 23.7276 26.932 21.9795 27.56ZM21.7399 22H17.2549C17.1591 21.34 17.1016 20.68 17.1016 20C17.1016 19.32 17.1591 18.65 17.2549 18H21.7399C21.8261 18.65 21.8932 19.32 21.8932 20C21.8932 20.68 21.8261 21.34 21.7399 22ZM19.4974 27.96C18.702 26.76 18.0599 25.43 17.667 24H21.3278C20.9349 25.43 20.2928 26.76 19.4974 27.96ZM15.6641 16H12.8657C13.7846 14.3272 15.2566 13.0615 17.0057 12.44C16.4307 13.55 15.9995 14.75 15.6641 16ZM12.8657 24H15.6641C15.9995 25.25 16.4307 26.45 17.0057 27.56C15.2602 26.9317 13.7904 25.6677 12.8657 24ZM12.0799 22C11.9266 21.36 11.8307 20.69 11.8307 20C11.8307 19.31 11.9266 18.64 12.0799 18H15.3191C15.2424 18.66 15.1849 19.32 15.1849 20C15.1849 20.68 15.2424 21.34 15.3191 22M19.4974 12.03C20.2928 13.23 20.9349 14.57 21.3278 16H17.667C18.0599 14.57 18.702 13.23 19.4974 12.03ZM26.1291 16H23.302C23.002 14.7615 22.5579 13.5659 21.9795 12.44C23.7428 13.07 25.2091 14.34 26.1291 16ZM19.4974 10C14.1978 10 9.91406 14.5 9.91406 20C9.91406 22.6522 10.9237 25.1957 12.721 27.0711C13.6109 27.9997 14.6673 28.7362 15.83 29.2388C16.9927 29.7413 18.2389 30 19.4974 30C22.0391 30 24.4766 28.9464 26.2738 27.0711C28.0711 25.1957 29.0807 22.6522 29.0807 20C29.0807 18.6868 28.8329 17.3864 28.3512 16.1732C27.8696 14.9599 27.1637 13.8575 26.2738 12.9289C25.3839 12.0003 24.3275 11.2638 23.1648 10.7612C22.0021 10.2587 20.7559 10 19.4974 10Z" fill="#111111"/>
</svg>
