<svg width="24" height="24" viewBox="0 0 24 24" fill="none" xmlns="http://www.w3.org/2000/svg">
<g clip-path="url(#clip0_4246_2349)">
<path d="M21.375 3.15228C21.1171 2.98546 20.8222 2.88453 20.5162 2.85837C20.2102 2.83222 19.9024 2.88164 19.62 3.00228L10.365 6.64728C10.1459 6.73646 9.91156 6.7823 9.675 6.78228H3.75C3.25272 6.78228 2.77581 6.97983 2.42417 7.33146C2.07254 7.68309 1.875 8.16 1.875 8.65728V8.80728H0V13.3073H1.875V13.5023C1.88675 13.9917 2.08947 14.4572 2.43983 14.7991C2.7902 15.1411 3.26042 15.3324 3.75 15.3323L6 20.1023C6.15236 20.4235 6.39222 20.6952 6.69204 20.8863C6.99187 21.0773 7.33949 21.1799 7.695 21.1823H8.64C9.13468 21.1783 9.60775 20.979 9.95614 20.6278C10.3045 20.2766 10.5 19.802 10.5 19.3073V15.5123L19.62 19.1573C19.8443 19.2466 20.0836 19.2924 20.325 19.2923C20.6996 19.2862 21.0643 19.1716 21.375 18.9623C21.6217 18.7957 21.8252 18.5728 21.9687 18.3119C22.1121 18.0511 22.1914 17.7598 22.2 17.4623V4.69728C22.1986 4.39206 22.1228 4.09178 21.979 3.82253C21.8352 3.55329 21.6279 3.32321 21.375 3.15228ZM8.625 8.65728V13.5023H3.75V8.65728H8.625ZM8.625 19.3073H7.68L5.835 15.3323H8.625V19.3073ZM11.055 13.7273C10.8769 13.6363 10.6912 13.561 10.5 13.5023V8.55228C10.6894 8.51321 10.875 8.45801 11.055 8.38728L20.325 4.69728V17.4173L11.055 13.7273ZM22.245 9.18228V12.9323C22.7423 12.9323 23.2192 12.7347 23.5708 12.3831C23.9225 12.0315 24.12 11.5546 24.12 11.0573C24.12 10.56 23.9225 10.0831 23.5708 9.73146C23.2192 9.37983 22.7423 9.18228 22.245 9.18228Z" fill="#111111"/>
</g>
<defs>
<clipPath id="clip0_4246_2349">
<rect width="24" height="24" fill="white"/>
</clipPath>
</defs>
</svg>
