<svg width="40" height="40" viewBox="0 0 40 40" fill="none" xmlns="http://www.w3.org/2000/svg">
<rect width="40" height="40" rx="5" fill="#ECECEC"/>
<g clip-path="url(#clip0_6992_2518)">
<path d="M29.375 11.1523C29.1171 10.9855 28.8222 10.8845 28.5162 10.8584C28.2102 10.8322 27.9024 10.8816 27.62 11.0023L18.365 14.6473C18.1459 14.7365 17.9116 14.7823 17.675 14.7823H11.75C11.2527 14.7823 10.7758 14.9798 10.4242 15.3315C10.0725 15.6831 9.875 16.16 9.875 16.6573V16.8073H8V21.3073H9.875V21.5023C9.88675 21.9917 10.0895 22.4572 10.4398 22.7991C10.7902 23.1411 11.2604 23.3324 11.75 23.3323L14 28.1023C14.1524 28.4235 14.3922 28.6952 14.692 28.8863C14.9919 29.0773 15.3395 29.1799 15.695 29.1823H16.64C17.1347 29.1783 17.6077 28.979 17.9561 28.6278C18.3045 28.2766 18.5 27.802 18.5 27.3073V23.5123L27.62 27.1573C27.8443 27.2466 28.0836 27.2924 28.325 27.2923C28.6996 27.2862 29.0643 27.1716 29.375 26.9623C29.6217 26.7957 29.8252 26.5728 29.9687 26.3119C30.1121 26.0511 30.1914 25.7598 30.2 25.4623V12.6973C30.1986 12.3921 30.1228 12.0918 29.979 11.8225C29.8352 11.5533 29.6279 11.3232 29.375 11.1523ZM16.625 16.6573V21.5023H11.75V16.6573H16.625ZM16.625 27.3073H15.68L13.835 23.3323H16.625V27.3073ZM19.055 21.7273C18.8769 21.6363 18.6912 21.561 18.5 21.5023V16.5523C18.6894 16.5132 18.875 16.458 19.055 16.3873L28.325 12.6973V25.4173L19.055 21.7273ZM30.245 17.1823V20.9323C30.7423 20.9323 31.2192 20.7347 31.5708 20.3831C31.9225 20.0315 32.12 19.5546 32.12 19.0573C32.12 18.56 31.9225 18.0831 31.5708 17.7315C31.2192 17.3798 30.7423 17.1823 30.245 17.1823Z" fill="#111111"/>
</g>
<defs>
<clipPath id="clip0_6992_2518">
<rect width="24" height="24" fill="white" transform="translate(8 8)"/>
</clipPath>
</defs>
</svg>
