<svg width="72" height="62" viewBox="0 0 72 62" fill="none" xmlns="http://www.w3.org/2000/svg">
<path d="M31.363 13.4918C31.4548 13.8491 31.4181 13.9206 31.1796 13.8313C30.7943 13.6883 30.7943 14.2601 31.1796 14.7961C31.73 15.5644 32.7207 15.0463 32.7207 14.0099C32.7207 13.331 32.4271 13.0451 31.7667 13.0451C31.308 13.0451 31.253 13.0987 31.363 13.4918Z" fill="#666666"/>
<path d="M34.9756 13.2573C34.6454 13.7754 34.3702 14.3472 34.3702 14.5437C34.3702 14.7581 35.3792 14.7939 35.5994 14.5973C35.7828 14.4008 36.3882 14.4544 36.3882 14.6509C36.3882 14.7403 36.2782 14.8296 36.1497 14.8296C35.8195 14.8296 35.104 15.5979 35.104 15.9552C35.104 16.116 35.1957 16.2947 35.2875 16.3483C35.526 16.4913 35.3242 16.8486 34.4619 17.7777C34.1133 18.1708 33.8198 18.5817 33.8198 18.7068C33.8198 18.8319 33.7464 18.9391 33.673 18.9391C33.5813 18.9391 33.4895 19.3322 33.4712 19.7967C33.4528 20.565 33.5262 20.7437 34.095 21.3155C34.627 21.8515 34.8839 21.9766 35.4342 21.9766C36.9019 21.9766 37.489 21.3333 37.489 19.7431C37.489 18.7962 37.1588 17.9028 36.6634 17.5097C36.5167 17.3846 36.3882 17.0988 36.3882 16.8665C36.3882 16.6521 36.3149 16.4019 36.2048 16.3483C35.6544 16.0088 36.5901 14.7403 37.4707 14.6152C37.7275 14.5973 37.9477 14.4722 37.9844 14.365C38.0761 14.097 37.4156 13.4002 37.0487 13.4002C36.8836 13.4002 36.7552 13.3109 36.7552 13.2215C36.7552 12.9535 35.159 13.0071 34.9756 13.2573Z" fill="#666666"/>
<path d="M25.0889 14.7389C24.0982 15.9003 23.7863 16.347 22.7773 18.0444C21.6398 19.9919 21.1628 20.9568 20.0437 23.4939C19.7685 24.1372 19.2915 25.6202 19.108 26.3527C19.0163 26.7458 18.8512 27.4248 18.7411 27.8714C18.2458 29.8905 18.3742 33.9106 18.9979 36.0905C19.4566 37.7164 19.6034 38.0559 20.2638 39.3245C21.86 42.4334 23.9514 44.7383 27.0336 46.7931C27.7858 47.2934 29.7855 48.2403 30.0791 48.2403C30.391 48.2403 30.5194 48.6691 30.391 49.366C30.2442 50.2415 31.2899 52.9037 32.1522 53.8328C32.4274 54.1366 32.4091 54.1902 32.0788 54.4225C31.8954 54.5654 31.4551 54.6726 31.1248 54.6726C30.391 54.6726 29.1618 55.2086 28.2995 55.9055C27.5656 56.5129 27.6941 56.7988 28.538 56.4057C29.8773 55.8161 30.501 55.6553 30.7395 55.8876C30.9047 56.0484 30.868 56.1913 30.5561 56.5129C29.9323 57.1562 30.0791 57.2276 31.0147 56.7274C32.5925 55.9055 33.0879 56.2271 31.9871 57.3348C31.5835 57.7458 31.2532 58.121 31.2532 58.1746C31.2532 58.3354 31.877 58.1746 33.3631 57.6565C35.4178 56.9418 35.5096 56.9418 37.2525 57.5493C39.9861 58.4784 40.1145 58.4784 39.0137 57.2991C38.3716 56.6023 38.3532 56.5666 38.7385 56.4057C39.0137 56.2807 39.2706 56.3343 39.7476 56.6202C40.6282 57.1383 40.9217 57.1204 40.5364 56.5487C39.9494 55.691 40.5364 55.6017 42.1876 56.3164C42.6096 56.4951 43.0499 56.7631 43.1783 56.906C43.4352 57.1919 43.7287 57.2634 43.7287 57.0311C43.7287 56.7452 42.2793 55.4409 41.6189 55.1372L40.9584 54.8334L41.839 54.1723C44.2424 52.3498 46.8109 49.1873 47.3796 47.347C47.508 46.9003 47.6915 46.3642 47.7832 46.132C48.0034 45.5959 47.985 44.8991 47.7649 44.506C47.6364 44.2559 47.6915 44.0772 48.0584 43.7556C48.2969 43.5412 48.6271 43.1481 48.7556 42.898C48.884 42.63 49.416 41.7723 49.9114 40.9683C50.4251 40.1821 51.0489 38.9671 51.3424 38.2882C51.6176 37.6271 51.9111 36.9124 51.9845 36.7158C52.6817 35.0363 53.1954 27.5498 52.6817 26.4421C52.5532 26.1383 52.3881 25.906 52.3147 25.906C52.1313 25.906 51.6176 26.4421 51.6176 26.6386C51.6176 26.7279 51.4892 26.7994 51.3424 26.7994C51.1039 26.7994 51.0672 26.4063 51.0672 24.298C51.0672 21.6893 50.7737 20.3671 50.2049 20.3671C49.8747 20.3671 49.2693 21.6715 49.1408 22.6899C49.0858 23.1187 49.0124 23.4939 48.9757 23.5297C48.939 23.5654 48.7923 23.3331 48.6271 23.0115C48.1685 22.0467 48.0217 18.1337 48.3886 16.1147C48.5538 15.1856 48.6455 14.3637 48.5905 14.2743C48.3703 13.9527 47.7098 14.1135 47.2695 14.5959C46.4073 15.5608 45.7651 17.008 45.7468 18.0444C45.7468 18.3838 45.6184 18.8305 45.4716 19.0092C45.2331 19.3129 45.1964 19.3129 45.0863 19.0449C45.0313 18.8841 45.0313 18.4553 45.0863 18.0801C45.4166 16.0968 45.4349 15.7216 45.1597 15.7216C44.5726 15.7216 43.7654 16.9187 43.3985 18.3124C42.9215 20.1884 42.8114 20.8138 42.8114 21.9573C42.8114 22.9222 42.738 23.2795 42.4261 23.6547C42.0408 24.1372 42.0042 24.8519 42.3894 24.9591C42.4995 24.9948 42.6463 24.8697 42.7197 24.6732C42.9031 24.1014 43.3985 24.0478 43.8204 24.5481C44.2974 25.1199 44.7194 25.1735 44.5543 24.6374C44.3341 23.9763 44.646 21.6536 45.0129 21.2248C45.2881 20.8853 45.3982 20.8495 45.8202 21.0461C46.3706 21.2784 46.7008 21.9931 47.0127 23.5833C47.1228 24.2265 47.2695 24.9591 47.3246 25.2271C47.453 25.8346 47.9483 25.8882 47.9483 25.3164C47.9483 25.0841 48.1135 24.7446 48.2969 24.566C48.6455 24.2622 48.6822 24.2801 49.0308 24.8519C49.3793 25.4057 49.4894 25.781 49.4344 26.1383C49.416 26.2098 49.5078 26.4599 49.6178 26.6743C49.8197 27.0317 49.8747 27.389 49.9481 28.9078C49.9664 29.4259 50.0031 29.4795 50.4067 29.3723C50.7737 29.283 50.9021 29.3723 51.1589 29.8369C51.3974 30.2836 51.4341 30.766 51.3791 32.2132C51.2507 34.8755 50.9938 36.0011 50.1132 37.6807C49.306 39.2351 48.1318 40.7181 48.1318 40.1821C48.1318 40.0213 48.3336 39.253 48.5905 38.4847C49.0858 36.9838 49.1592 36.1798 48.8656 36.0011C48.7556 35.9297 48.5538 35.9833 48.407 36.0905C48.0217 36.3942 47.8383 35.8582 48.1135 35.2686C48.2235 35.0184 48.3153 34.268 48.3153 33.5712V32.3383L47.6915 32.5885C47.3429 32.7314 47.0127 32.8029 46.9576 32.7314C46.9026 32.6778 46.8476 32.1596 46.8476 31.5879C46.8476 30.8196 46.7742 30.5516 46.5907 30.5516C46.3155 30.5516 45.3799 31.6593 45.3799 31.9631C45.3799 32.2311 45.1047 32.2132 44.8662 31.9274C44.7744 31.8202 44.4992 31.1412 44.2607 30.4622C43.7104 28.8899 42.6096 27.2282 41.0135 25.6738C39.6558 24.3158 39.1054 23.9763 38.2065 23.9049C37.7662 23.8691 37.5827 23.9227 37.5277 24.155C37.491 24.3694 37.8396 24.6374 38.7752 25.102C40.4447 25.9596 41.7473 27.3533 42.7747 29.3008C43.1967 30.1406 43.5452 30.9089 43.5452 31.034C43.5452 31.1412 43.6186 31.2663 43.692 31.302C43.8571 31.3735 44.8111 34.0893 45.0313 35.1078C45.1047 35.5008 45.2698 36.1798 45.3799 36.6265C45.8936 38.6812 45.9669 39.1101 46.0036 40.2C46.022 41.2899 46.0036 41.3614 45.5817 41.415C45.3432 41.4507 45.068 41.3971 44.9579 41.2899C44.8478 41.1827 44.5359 41.0934 44.2607 41.0934C43.9855 41.0934 43.692 41.004 43.637 40.9147C43.5819 40.8075 43.3618 40.736 43.1783 40.736C42.738 40.736 41.5271 40.1106 41.1602 39.6997C40.6649 39.1458 38.9036 38.1988 37.8946 37.9487C37.3625 37.8057 36.5553 37.502 36.1517 37.2697C35.7297 37.0196 34.9225 36.6622 34.3721 36.4478C33.0512 35.9475 31.5651 34.536 30.868 33.1423C30.4093 32.2132 30.3359 31.8559 30.3359 30.498C30.3359 29.1936 30.4093 28.7648 30.7946 27.9965C31.2899 26.9781 32.2439 25.9239 32.9778 25.5844C33.2346 25.4772 33.6383 25.2807 33.8768 25.1913C34.0969 25.0841 34.684 24.7089 35.161 24.3694C35.8948 23.8513 36.0049 23.6905 35.8215 23.4761C35.7114 23.3331 35.3812 23.2259 35.1243 23.2259C34.5739 23.2259 33.0879 22.2611 33.0879 21.9037C33.0879 21.7787 32.9411 21.5464 32.7576 21.3856C32.4458 21.0997 32.4091 21.1533 32.0238 22.3325C31.5835 23.7083 30.8313 25.0127 30.4644 25.0127C30.3543 25.0127 30.0607 25.0663 29.8406 25.1199C29.3452 25.2449 28.8682 24.4588 28.8682 23.4582V22.7792L28.5013 23.2259C28.2995 23.4761 28.1344 23.7619 28.1344 23.887C28.1344 24.4588 26.575 26.6207 26.153 26.6207C26.0796 26.6207 25.8961 26.5314 25.7494 26.4421C25.5292 26.317 25.4742 25.8703 25.4925 24.2622C25.4925 23.0472 25.5843 22.0824 25.731 21.8323C26.1346 21.1176 25.4925 21.1533 24.777 21.9037C24.0615 22.672 23.6579 22.6363 23.4928 21.8144C23.346 21.1533 23.4561 20.4922 23.9698 18.9377C24.1899 18.2945 24.3734 17.7406 24.3917 17.687C24.4651 17.3654 25.1073 16.0968 25.4925 15.5251C26.2631 14.3279 25.9512 13.7026 25.0889 14.7389ZM27.3638 41.0219C27.4005 41.5043 27.4923 41.9689 27.6023 42.0582C27.6941 42.1654 27.7675 42.3798 27.7675 42.5406C27.7675 43.1302 28.9049 44.9348 29.914 45.9354C30.7212 46.7395 30.9047 47.0253 30.7946 47.3291C30.6111 47.9187 30.2442 47.7758 29.1985 46.6501C28.1527 45.5245 27.0336 43.5412 27.0336 42.8265C27.0336 42.5942 26.9419 42.1475 26.8318 41.8259C26.5933 41.1648 26.7768 39.9677 27.0886 40.0749C27.2171 40.1106 27.3271 40.5395 27.3638 41.0219ZM36.6287 42.5049C36.537 42.6657 36.2618 42.8086 36.0416 42.8444C35.693 42.898 35.6563 42.8265 35.6563 41.8974C35.6563 41.2542 35.7664 40.736 35.9682 40.4323L36.2801 39.9677L36.5553 41.0934C36.7388 41.8795 36.7755 42.2905 36.6287 42.5049ZM38.5917 41.9867C38.5917 42.0761 38.4633 42.1654 38.3166 42.1654C38.1698 42.1654 38.0414 42.0761 38.0414 41.9867C38.0414 41.8795 38.1698 41.8081 38.3166 41.8081C38.4633 41.8081 38.5917 41.8795 38.5917 41.9867ZM32.3907 46.7573C31.7669 47.8651 31.6018 50.17 32.0788 51.1527C32.2439 51.5101 32.3357 51.8853 32.2623 52.0104C31.9687 52.4749 31.5651 51.0098 31.5468 49.4017C31.5468 48.0438 31.6018 47.6507 31.9871 46.8645C32.2439 46.3464 32.5375 45.9176 32.6659 45.9176C32.7943 45.9176 32.6843 46.257 32.3907 46.7573Z" fill="#666666"/>
<path d="M35.1077 9.29668L34.9949 8.46542C34.6073 6.75326 37.2573 5.70723 36.8301 4.84596C36.2129 3.72723 32.7339 4.95049 31.3288 7.73927C31.1377 8.0458 31.0323 8.41178 31.0125 8.83722C30.8987 8.56995 30.7848 8.30268 30.5948 8.04523C29.54 6.55994 31.8579 4.78137 30.9922 4.11752C29.8603 3.20604 27.1321 5.38986 26.8505 8.45686C26.7827 9.09993 26.8673 9.72338 27.1806 10.3174C27.095 10.2579 27.0094 10.1985 26.9331 10.2083C25.5151 9.47459 26.557 7.43742 25.5859 7.13956C24.1387 6.76205 23.2576 9.41285 24.2728 11.749C24.9182 13.0756 26.7926 14.3143 28.0047 12.9601C28.415 12.5548 29.4069 11.8633 29.9884 11.5769C30.427 11.3795 31.6559 11.2917 32.484 11.6785C33.2264 12.0058 33.8728 12.7683 34.8637 12.6408C39.2272 12.2199 41.0728 8.10571 39.3593 7.48055C38.4456 7.03434 37.3379 8.58661 35.1077 9.29668Z" fill="#666666"/>
</svg>
