<svg width="40" height="40" viewBox="0 0 40 40" fill="none" xmlns="http://www.w3.org/2000/svg">
<rect width="40" height="40" rx="5" fill="#ECECEC"/>
<path d="M20 18C24.418 18 28 16.21 28 14C28 11.79 24.418 10 20 10C15.582 10 12 11.79 12 14C12 16.21 15.582 18 20 18Z" fill="#111111"/>
<path opacity="0.5" d="M12 20V26C12 28.21 15.582 30 20 30C24.418 30 28 28.21 28 26V20C28 22.21 24.418 24 20 24C15.582 24 12 22.21 12 20Z" fill="#111111"/>
<path opacity="0.7" d="M12 14V20C12 22.21 15.582 24 20 24C24.418 24 28 22.21 28 20V14C28 16.21 24.418 18 20 18C15.582 18 12 16.21 12 14Z" fill="#111111"/>
</svg>
