<svg width="40" height="40" viewBox="0 0 40 40" fill="none" xmlns="http://www.w3.org/2000/svg">
<rect width="40" height="40" rx="5" fill="#ECECEC"/>
<path d="M12.2436 9.35156C10.6779 9.35156 9.42188 10.6076 9.42188 12.1733V15.6727C9.42188 17.2384 10.6779 18.4944 12.2436 18.4944H15.743C17.3087 18.4944 18.5647 17.2384 18.5647 15.6727V12.1733C18.5647 10.6076 17.3087 9.35156 15.743 9.35156H12.2436ZM23.1361 9.35156C21.8733 9.35156 20.8504 10.3744 20.8504 11.6373V16.2087C20.8504 17.4716 21.8733 18.4944 23.1361 18.4944H27.7076C28.9704 18.4944 29.9933 17.4716 29.9933 16.2087V11.6373C29.9933 10.3744 28.9704 9.35156 27.7076 9.35156H23.1361ZM23.1361 11.6373H27.7076V16.2087H23.1361V11.6373ZM15.3144 12.387C15.5384 12.163 15.8767 12.163 16.1007 12.387C16.3247 12.6121 16.3247 12.9493 16.1007 13.1733L13.815 15.459C13.591 15.683 13.2527 15.683 13.0287 15.459L11.8859 14.3161C11.6619 14.091 11.6619 13.7539 11.8859 13.5299C12.1099 13.3059 12.4481 13.3059 12.6721 13.5299L13.4219 14.2796L15.3144 12.387ZM11.7076 20.7801C10.4447 20.7801 9.42188 21.803 9.42188 23.0658V27.6373C9.42188 28.9001 10.4447 29.923 11.7076 29.923H16.279C17.5419 29.923 18.5647 28.9001 18.5647 27.6373V23.0658C18.5647 21.803 17.5419 20.7801 16.279 20.7801H11.7076ZM23.1361 20.7801C21.8733 20.7801 20.8504 21.803 20.8504 23.0658V27.6373C20.8504 28.9001 21.8733 29.923 23.1361 29.923H27.7076C28.9704 29.923 29.9933 28.9001 29.9933 27.6373V23.0658C29.9933 21.803 28.9704 20.7801 27.7076 20.7801H23.1361ZM11.7076 23.0658H16.279V27.6373H11.7076V23.0658ZM23.1361 23.0658H27.7076V27.6373H23.1361V23.0658Z" fill="black"/>
</svg>
