<svg width="22" height="24" viewBox="0 0 22 24" fill="none" xmlns="http://www.w3.org/2000/svg">
<path d="M4.84416 2.92969C3.6388 2.92969 2.67188 4.02868 2.67188 5.39868V8.46069C2.67188 9.83069 3.6388 10.9297 4.84416 10.9297H7.5382C8.74357 10.9297 9.71049 9.83069 9.71049 8.46069V5.39868C9.71049 4.02868 8.74357 2.92969 7.5382 2.92969H4.84416ZM13.2298 2.92969C12.2576 2.92969 11.4701 3.82469 11.4701 4.92969V8.92969C11.4701 10.0347 12.2576 10.9297 13.2298 10.9297H16.7491C17.7213 10.9297 18.5088 10.0347 18.5088 8.92969V4.92969C18.5088 3.82469 17.7213 2.92969 16.7491 2.92969H13.2298ZM13.2298 4.92969H16.7491V8.92969H13.2298V4.92969ZM7.20827 5.58569C7.38071 5.38969 7.64113 5.38969 7.81358 5.58569C7.98602 5.78269 7.98602 6.07768 7.81358 6.27368L6.05392 8.27368C5.88148 8.46968 5.62106 8.46968 5.44861 8.27368L4.56879 7.27368C4.39634 7.07668 4.39634 6.78169 4.56879 6.58569C4.74123 6.38969 5.00165 6.38969 5.1741 6.58569L5.75127 7.2417L7.20827 5.58569ZM4.43153 12.9297C3.45932 12.9297 2.67188 13.8247 2.67188 14.9297V18.9297C2.67188 20.0347 3.45932 20.9297 4.43153 20.9297H7.95084C8.92304 20.9297 9.71049 20.0347 9.71049 18.9297V14.9297C9.71049 13.8247 8.92304 12.9297 7.95084 12.9297H4.43153ZM13.2298 12.9297C12.2576 12.9297 11.4701 13.8247 11.4701 14.9297V18.9297C11.4701 20.0347 12.2576 20.9297 13.2298 20.9297H16.7491C17.7213 20.9297 18.5088 20.0347 18.5088 18.9297V14.9297C18.5088 13.8247 17.7213 12.9297 16.7491 12.9297H13.2298ZM4.43153 14.9297H7.95084V18.9297H4.43153V14.9297ZM13.2298 14.9297H16.7491V18.9297H13.2298V14.9297Z" fill="black"/>
</svg>
