<svg width="40" height="40" viewBox="0 0 40 40" fill="none" xmlns="http://www.w3.org/2000/svg">
<rect width="40" height="40" rx="5" fill="#ECECEC"/>
<path d="M24.3142 11.2592C23.5678 11.2361 22.7891 11.5035 22.1932 12.0994L21.1425 13.157C19.1356 13.0385 17.4735 13.565 16.1601 14.4977C15.4316 15.0149 14.942 15.5294 14.6854 15.9143C14.6266 16.0031 14.5955 16.1012 14.5697 16.2039L11.7939 27.3074C11.6245 27.9847 12.2439 28.6037 12.9216 28.4344L24.0251 25.6585C24.1279 25.6336 24.2259 25.6021 24.3142 25.5429C24.6981 25.2875 25.2152 24.7962 25.731 24.0689C26.6645 22.7531 27.1953 21.095 27.0651 19.0955L28.1632 18.0036C29.3551 16.8118 29.1239 14.9058 28.1232 13.9046L26.288 12.0799C25.7877 11.5803 25.0606 11.2823 24.3142 11.2592ZM24.2852 13.1098C24.5598 13.119 24.8565 13.2375 25.0212 13.4022L26.8298 15.249C27.1592 15.5784 27.2666 16.2733 26.8619 16.6786L26.107 17.4466C25.098 16.438 23.7067 15.027 22.7959 14.1156L23.547 13.3744C23.7493 13.1718 24.0108 13.1014 24.2852 13.1098ZM21.0268 15.0038C21.7911 15.7626 24.4227 18.3774 25.2159 19.1649C25.3243 20.7203 24.9435 21.9888 24.2274 22.9983C24.0081 23.3083 23.7644 23.5683 23.5335 23.7793C23.4443 23.8607 23.4079 23.8866 23.36 23.9236L15.7157 25.8251L19.6133 21.9306C19.7492 21.9629 19.9469 21.987 20.0926 21.987C21.1147 21.987 21.9432 21.1579 21.9432 20.1364C21.9432 19.114 21.1147 18.2858 20.0926 18.2858C19.0705 18.2858 18.242 19.114 18.242 20.1364C18.242 20.2817 18.2722 20.4751 18.304 20.6111L14.3949 24.5352L16.3046 16.8683C16.3419 16.8202 16.3674 16.785 16.4493 16.6953C16.6612 16.463 16.9199 16.2215 17.2299 16.0013C18.2307 15.2907 19.4921 14.9067 21.0268 15.0038Z" fill="black"/>
</svg>
