<svg width="24" height="23" viewBox="0 0 24 23" fill="none" xmlns="http://www.w3.org/2000/svg">
<path d="M16.554 2.65763C15.7473 2.6345 14.9057 2.90192 14.2617 3.49781L13.1262 4.55542C10.9572 4.43698 9.16091 4.96345 7.74151 5.89614C6.95421 6.41337 6.42501 6.92784 6.14771 7.31276C6.08421 7.40159 6.05051 7.49966 6.02271 7.60236L3.02271 18.7058C2.83971 19.3831 3.50911 20.0022 4.24151 19.8328L16.2415 17.057C16.3527 17.032 16.4586 17.0005 16.554 16.9413C16.9689 16.6859 17.5277 16.1946 18.0852 15.4673C19.0941 14.1516 19.6677 12.4934 19.527 10.4939L20.7138 9.40205C22.0019 8.21028 21.752 6.3042 20.6706 5.30304L18.6872 3.47838C18.1465 2.97873 17.3607 2.68076 16.554 2.65763ZM16.5227 4.5082C16.8194 4.51746 17.1401 4.63593 17.3181 4.80063L19.2727 6.64748C19.6287 6.97688 19.7448 7.67176 19.3074 8.07704L18.4915 8.84504C17.4011 7.83648 15.8974 6.42544 14.9131 5.51403L15.7248 4.77285C15.9435 4.57021 16.2261 4.49988 16.5227 4.5082ZM13.0011 6.40227C13.8272 7.161 16.6712 9.77588 17.5285 10.5633C17.6457 12.1187 17.2341 13.3873 16.4602 14.3968C16.2232 14.7067 15.9598 14.9667 15.7102 15.1777C15.6139 15.2591 15.5745 15.285 15.5227 15.3221L7.26121 17.2235L11.4735 13.329C11.6204 13.3614 11.8341 13.3854 11.9915 13.3854C13.0961 13.3854 13.9915 12.5564 13.9915 11.5348C13.9915 10.5124 13.0961 9.68426 11.9915 9.68426C10.8869 9.68426 9.99151 10.5124 9.99151 11.5348C9.99151 11.6801 10.0241 11.8735 10.0585 12.0095L5.83371 15.9337L7.89771 8.26674C7.93801 8.21862 7.96551 8.18345 8.05401 8.0937C8.28301 7.86145 8.56261 7.61995 8.89771 7.39973C9.97931 6.68911 11.3425 6.30511 13.0011 6.40227Z" fill="black"/>
</svg>
