<svg width="74" height="13" viewBox="0 0 74 13" fill="none" xmlns="http://www.w3.org/2000/svg">
<path d="M3.32031 8.49524L9.75863 2.71094L15.6116 8.49524L20.5867 3.57858L25.5618 8.49524L30.5368 3.57858L35.5119 8.49524L40.487 3.57858L45.462 8.49524L50.4371 3.57858L55.4122 8.49524L60.3872 3.57858L65.3623 8.49524L70.3373 3.57858" stroke="#E6EFFF" stroke-width="2" stroke-linecap="round" stroke-linejoin="round"/>
<path d="M72.8205 3.90027C72.8205 5.25363 71.7071 6.37085 70.3087 6.37085C68.9103 6.37085 67.7969 5.25363 67.7969 3.90027C67.7969 2.54691 68.9103 1.42969 70.3087 1.42969C71.7071 1.42969 72.8205 2.54691 72.8205 3.90027Z" fill="#002F86" stroke="white" stroke-width="2"/>
<path d="M6.09393 8.57996C6.09393 9.93332 4.98052 11.0505 3.58212 11.0505C2.18372 11.0505 1.07031 9.93332 1.07031 8.57996C1.07031 7.22659 2.18372 6.10938 3.58212 6.10937C4.98052 6.10937 6.09393 7.22659 6.09393 8.57996Z" fill="#002F86" stroke="white" stroke-width="2"/>
</svg>
