<svg width="32" height="28" viewBox="0 0 32 28" fill="none" xmlns="http://www.w3.org/2000/svg">
<path d="M31.4766 0.313125L30.6942 5.93609C29.1296 5.80456 27.8583 6.06762 26.8804 6.72528C25.9024 7.35005 25.2179 8.27077 24.8267 9.48744C24.4682 10.6712 24.403 12.0523 24.6311 13.6307H31.4766V27.0469H18.1769V13.6307C18.1769 8.89555 19.2689 5.31132 21.4529 2.87799C23.6369 0.411775 26.9781 -0.44318 31.4766 0.313125ZM13.7762 0.313125L12.9939 5.93609C11.4292 5.80456 10.158 6.06762 9.18003 6.72528C8.20212 7.35005 7.51757 8.27077 7.1264 9.48744C6.76784 10.6712 6.70264 12.0523 6.93082 13.6307H13.7762V27.0469H0.476562V13.6307C0.476562 8.89555 1.56857 5.31132 3.75259 2.87799C5.9366 0.411775 9.27782 -0.44318 13.7762 0.313125Z" fill="#FBB57B"/>
</svg>
